<?xml version="1.0" encoding="utf-8"?>
<!-- Generator: Adobe Illustrator 17.0.0, SVG Export Plug-In . SVG Version: 6.00 Build 0)  -->
<!DOCTYPE svg PUBLIC "-//W3C//DTD SVG 1.1//EN" "http://www.w3.org/Graphics/SVG/1.1/DTD/svg11.dtd">
<svg version="1.1" id="Capa_1" xmlns="http://www.w3.org/2000/svg" xmlns:xlink="http://www.w3.org/1999/xlink" x="0px" y="0px"
	 width="470px" height="470px" viewBox="0 0 470 470" enable-background="new 0 0 470 470" xml:space="preserve">
<g>
	<path fill="#E37976" d="M325.018,55.944c5.454,9.482,8.586,20.469,8.586,32.19c0,35.737-28.969,64.706-64.705,64.706
		c-35.734,0-64.703-28.969-64.703-64.706c0-11.721,3.132-22.708,8.584-32.19H104.331v127.76
		c-10.282-9.652-24.107-15.572-39.323-15.572c-31.749,0-57.485,25.736-57.485,57.484c0,31.753,25.737,57.489,57.485,57.489
		c15.216,0,29.041-5.92,39.323-15.574v146.526c197.131-1.495,356.634-160.986,358.147-358.112L325.018,55.944L325.018,55.944z"/>
	<g>
		<path fill="#FFFFFF" d="M173.842,263.63h-11.811v-42.899h11.811C200.236,220.731,200.236,263.63,173.842,263.63z M169.96,229.311
			v25.739h3.882c15.415,0,15.415-25.739,0-25.739H169.96z"/>
		<path fill="#FFFFFF" d="M201.072,263.63v-42.899h19.852v8.58h-11.922v8.58h10.425v8.58h-10.425v8.579h12.588v8.58H201.072z"/>
		<path fill="#FFFFFF" d="M228.191,251.87c4.547,3.48,9.481,3.6,11.312,3.42c2.329-0.18,4.325-1.979,4.104-4.319
			c-0.166-2.46-1.886-3.54-4.104-4.38c-6.21-2.46-11.755-5.88-11.755-13.081c0-7.199,4.602-12.719,11.2-13.079
			c2.052-0.12,4.77-0.12,9.87,1.8l-0.998,8.279c-4.38-1.92-6.876-1.859-8.096-1.8c-2.828,0.181-4.104,2.4-3.937,4.8
			c0.222,2.4,2.162,3.481,4.436,4.321c6.155,2.46,11.479,6.3,11.479,13.14c0,7.14-4.547,12.6-11.978,13.02
			c-2.218,0.18-7.152-0.12-12.531-3.12L228.191,251.87z"/>
		<path fill="#FFFFFF" d="M258.359,263.63v-42.899h7.93v42.899H258.359z"/>
		<path fill="#FFFFFF" d="M293.571,263.87c-26.173,0-27.503-42.419,0-43.499c4.714-0.181,8.539,1.319,9.261,1.56l-0.943,8.699
			c-1.553-0.72-4.104-1.68-8.317-1.56c-16.025,0.6-15.305,26.219,0,26.219c0.721,0,1.497-0.12,2.218-0.24V242.15h8.041v18.84
			C300.78,262.85,297.342,263.87,293.571,263.87z"/>
		<path fill="#FFFFFF" d="M320.469,263.63h-7.93v-43.798h2.107l20.018,25.199v-24.239h7.985v43.739h-2.107l-20.073-24.239V263.63z"
			/>
	</g>
</g>
</svg>
