<?xml version="1.0" encoding="utf-8"?>
<!-- Generator: Adobe Illustrator 17.0.0, SVG Export Plug-In . SVG Version: 6.00 Build 0)  -->
<!DOCTYPE svg PUBLIC "-//W3C//DTD SVG 1.1//EN" "http://www.w3.org/Graphics/SVG/1.1/DTD/svg11.dtd">
<svg version="1.1" id="Capa_1" xmlns="http://www.w3.org/2000/svg" xmlns:xlink="http://www.w3.org/1999/xlink" x="0px" y="0px"
	 width="470px" height="470px" viewBox="0 0 470 470" enable-background="new 0 0 470 470" xml:space="preserve">
<g>
	<path fill="#5AA9E0" d="M438.163,216.877c11.578,0,22.436,3.058,31.837,8.382v-113.35H359.137
		c7.315-9.644,11.663-21.665,11.663-34.701c0-31.749-25.738-57.487-57.486-57.487c-31.749,0-57.486,25.738-57.486,57.487
		c0,13.037,4.346,25.057,11.662,34.701H113.76C115.27,308.399,273.749,467.492,470,470V337.903
		c-9.401,5.327-20.259,8.382-31.837,8.382c-35.735,0-64.703-28.968-64.703-64.705C373.46,245.848,402.427,216.877,438.163,216.877z"
		/>
	<g>
		<path fill="#FFFFFF" d="M186.978,207.848h-11.811V164.95h11.811C213.372,164.95,213.372,207.848,186.978,207.848z M183.096,173.53
			v25.738h3.882c15.415,0,15.415-25.738,0-25.738H183.096z"/>
		<path fill="#FFFFFF" d="M214.208,207.848V164.95h19.851v8.58h-11.922v8.579h10.425v8.58h-10.425v8.579h12.587v8.58H214.208z"/>
		<path fill="#FFFFFF" d="M254.469,208.749l-16.413-43.799h9.149l5.268,14.279l2.884,8.88l2.828-8.579l5.323-14.58h9.148
			l-16.413,43.799H254.469z"/>
		<path fill="#FFFFFF" d="M277.484,207.848V164.95h19.852v8.58h-11.922v8.579h10.425v8.58h-10.425v8.579h12.587v8.58H277.484z"/>
		<path fill="#FFFFFF" d="M313.364,164.95v34.318h12.588v8.58h-20.517V164.95H313.364z"/>
		<path fill="#FFFFFF" d="M351.851,164.23c27.281,0,27.281,44.218,0,44.218S324.569,164.23,351.851,164.23z M351.851,173.049
			c-15.858,0-15.858,26.52,0,26.52S367.709,173.049,351.851,173.049z"/>
		<path fill="#FFFFFF" d="M379.747,207.848V165.01h15.582c15.415,0,15.359,26.459,0,26.459h-7.652v16.379H379.747z M394.663,183.129
			c5.323,0,5.323-9.6,0-9.6h-6.986v9.6H394.663z"/>
	</g>
</g>
<g>
</g>
<g>
</g>
<g>
</g>
<g>
</g>
<g>
</g>
<g>
</g>
</svg>
