<?xml version="1.0" encoding="utf-8"?>
<!-- Generator: Adobe Illustrator 17.0.0, SVG Export Plug-In . SVG Version: 6.00 Build 0)  -->
<!DOCTYPE svg PUBLIC "-//W3C//DTD SVG 1.1//EN" "http://www.w3.org/Graphics/SVG/1.1/DTD/svg11.dtd">
<svg version="1.1" id="Capa_1" xmlns="http://www.w3.org/2000/svg" xmlns:xlink="http://www.w3.org/1999/xlink" x="0px" y="0px"
	 width="470px" height="470px" viewBox="0 0 470 470" enable-background="new 0 0 470 470" xml:space="preserve">
<g>
	<path fill="#E9C332" d="M414.062,364.558C411.574,168.278,252.457,9.771,55.938,8.28v137.307
		c9.493-5.471,20.501-8.617,32.245-8.617c35.732,0,64.703,28.969,64.703,64.705c0,35.735-28.971,64.704-64.703,64.704
		c-11.744,0-22.752-3.146-32.245-8.616v106.795h122.993c-9.85,10.318-15.91,24.284-15.91,39.673
		c0,31.753,25.739,57.489,57.486,57.489c31.749,0,57.487-25.736,57.487-57.489c0-15.389-6.06-29.355-15.91-39.673H414.062z"/>
	<g>
		<path fill="#FFFFFF" d="M171.736,228.163v34.319h13.619v8.579h-22.199v-42.898H171.736z"/>
		<path fill="#FFFFFF" d="M192.736,271.062v-42.898h21.479v8.58h-12.899v8.58h11.279v8.579h-11.279v8.58h13.619v8.579H192.736z"/>
		<path fill="#FFFFFF" d="M237.195,226.604h0.899l18.06,44.458h-9.66l-1.739-4.619h-14.22l-1.68,4.619h-9.72L237.195,226.604z
			 M241.575,258.402l-3.9-11.159l-4.02,11.159H241.575z"/>
		<path fill="#FFFFFF" d="M283.516,271.062l-8.64-16.379h-4.14v16.379h-8.58v-42.898h16.919c15.3,0,16.8,21.539,4.2,25.199
			l9.96,17.699H283.516z M270.736,246.343h7.56c5.819,0,5.819-9.6,0-9.6h-7.56V246.343z"/>
		<path fill="#FFFFFF" d="M307.516,271.062h-8.58v-43.798h2.28l21.659,25.2v-24.24h8.64v43.739h-2.28l-21.719-24.239V271.062z"/>
	</g>
</g>
<g>
</g>
<g>
</g>
<g>
</g>
<g>
</g>
<g>
</g>
<g>
</g>
</svg>
