<?xml version="1.0" encoding="utf-8"?>
<!-- Generator: Adobe Illustrator 17.0.0, SVG Export Plug-In . SVG Version: 6.00 Build 0)  -->
<!DOCTYPE svg PUBLIC "-//W3C//DTD SVG 1.1//EN" "http://www.w3.org/Graphics/SVG/1.1/DTD/svg11.dtd">
<svg version="1.1" id="Capa_1" xmlns="http://www.w3.org/2000/svg" xmlns:xlink="http://www.w3.org/1999/xlink" x="0px" y="0px"
	 width="470px" height="470px" viewBox="0 0 470 470" enable-background="new 0 0 470 470" xml:space="preserve">
<g>
	<path fill="#31323A" d="M404.231,192.758c-15.418,0-29.407,6.081-39.731,15.962V56.873
		C168.862,59.371,10.762,217.482,8.284,413.127h140.829c-3.844-8.276-6.004-17.494-6.004-27.218
		c0-35.735,28.969-64.705,64.705-64.705c35.733,0,64.704,28.97,64.704,64.705c0,9.724-2.159,18.943-6.004,27.218H364.5V291.768
		c10.324,9.881,24.313,15.962,39.731,15.962c31.746,0,57.486-25.737,57.486-57.486C461.716,218.495,435.977,192.758,404.231,192.758
		z"/>
	<g>
		<path fill="#FFFFFF" d="M138.705,227.482v34.319h13.62v8.579h-22.199v-42.898H138.705z"/>
		<path fill="#FFFFFF" d="M159.705,270.38v-42.898h8.58v42.898H159.705z"/>
		<path fill="#FFFFFF" d="M177.044,258.62c4.92,3.48,10.259,3.601,12.239,3.42c2.52-0.18,4.68-1.979,4.44-4.319
			c-0.18-2.46-2.04-3.54-4.44-4.38c-6.72-2.46-12.719-5.88-12.719-13.079c0-7.2,4.979-12.72,12.12-13.08
			c2.22-0.12,5.16-0.12,10.679,1.8l-1.08,8.28c-4.74-1.92-7.44-1.86-8.76-1.8c-3.06,0.18-4.44,2.399-4.26,4.8
			c0.24,2.399,2.34,3.479,4.8,4.319c6.66,2.46,12.419,6.3,12.419,13.14c0,7.14-4.92,12.6-12.959,13.02
			c-2.4,0.18-7.74-0.12-13.56-3.12L177.044,258.62z"/>
		<path fill="#FFFFFF" d="M216.764,270.38v-34.318h-10.68v-8.52h29.938v8.52h-10.679v34.318H216.764z"/>
		<path fill="#FFFFFF" d="M242.504,270.38v-42.898h21.479v8.58h-12.899v8.58h11.28v8.579h-11.28v8.58h13.62v8.579H242.504z"/>
		<path fill="#FFFFFF" d="M281.323,270.38h-8.58v-43.798h2.28l21.659,25.199v-24.239h8.64v43.738h-2.28l-21.719-24.239V270.38z"/>
	</g>
</g>
<g>
</g>
<g>
</g>
<g>
</g>
<g>
</g>
<g>
</g>
<g>
</g>
</svg>
