<?xml version="1.0" encoding="utf-8"?>
<!-- Generator: Adobe Illustrator 17.0.0, SVG Export Plug-In . SVG Version: 6.00 Build 0)  -->
<!DOCTYPE svg PUBLIC "-//W3C//DTD SVG 1.1//EN" "http://www.w3.org/Graphics/SVG/1.1/DTD/svg11.dtd">
<svg version="1.1" id="Capa_1" xmlns="http://www.w3.org/2000/svg" xmlns:xlink="http://www.w3.org/1999/xlink" x="0px" y="0px"
	 width="450px" height="450px" viewBox="0 0 450 450" enable-background="new 0 0 450 450" xml:space="preserve">
<g>
	<g>
		<g>
			<g>
				<path fill="#31323A" d="M245.911,90.685c-9.203,0-17.552,3.63-23.715,9.527V9.578C105.424,11.069,11.057,105.442,9.578,222.219
					h84.058c-2.294-4.94-3.584-10.442-3.584-16.246c0-21.33,17.291-38.621,38.621-38.621c21.328,0,38.621,17.291,38.621,38.621
					c0,5.804-1.289,11.307-3.584,16.246h58.486v-72.437c6.162,5.898,14.512,9.528,23.715,9.528
					c18.949,0,34.312-15.362,34.312-34.312C280.223,106.047,264.86,90.685,245.911,90.685z"/>
				<g>
					<path fill="#FFFFFF" d="M87.424,111.412v20.485h8.129v5.121h-13.25v-25.606H87.424z"/>
					<path fill="#FFFFFF" d="M99.958,137.018v-25.606h5.122v25.606H99.958z"/>
					<path fill="#FFFFFF" d="M110.308,129.999c2.937,2.077,6.124,2.148,7.306,2.041c1.504-0.107,2.793-1.182,2.65-2.579
						c-0.107-1.468-1.218-2.113-2.65-2.614c-4.011-1.468-7.592-3.509-7.592-7.807c0-4.297,2.972-7.592,7.234-7.807
						c1.325-0.071,3.08-0.071,6.375,1.075l-0.645,4.942c-2.829-1.146-4.441-1.11-5.229-1.074c-1.827,0.107-2.65,1.433-2.543,2.865
						c0.144,1.433,1.397,2.077,2.865,2.579c3.975,1.468,7.413,3.76,7.413,7.843c0,4.262-2.937,7.521-7.735,7.771
						c-1.433,0.107-4.62-0.072-8.094-1.862L110.308,129.999z"/>
					<path fill="#FFFFFF" d="M134.015,137.018v-20.485h-6.375v-5.085h17.87v5.085h-6.375v20.485H134.015z"/>
					<path fill="#FFFFFF" d="M149.379,137.018v-25.606H162.2v5.121h-7.7v5.122h6.732v5.121H154.5v5.121h8.129v5.121H149.379z"/>
					<path fill="#FFFFFF" d="M172.55,137.018h-5.121v-26.143h1.361l12.928,15.041v-14.468h5.157v26.107h-1.361l-12.964-14.468
						V137.018z"/>
				</g>
			</g>
			<g>
				<path fill="#E9C332" d="M440.422,222.219C438.938,105.063,343.964,10.453,226.665,9.563v81.956
					c5.666-3.266,12.237-5.143,19.246-5.143c21.328,0,38.62,17.291,38.62,38.621c0,21.329-17.292,38.621-38.62,38.621
					c-7.01,0-13.58-1.878-19.246-5.143v63.744h73.412c-5.879,6.159-9.496,14.495-9.496,23.68c0,18.953,15.363,34.314,34.312,34.314
					c18.951,0,34.313-15.361,34.313-34.314c0-9.186-3.617-17.522-9.496-23.68H440.422z"/>
				<g>
					<path fill="#FFFFFF" d="M292.799,151.551v20.485h8.129v5.121h-13.25v-25.606H292.799z"/>
					<path fill="#FFFFFF" d="M305.333,177.157v-25.606h12.82v5.121h-7.699v5.122h6.732v5.121h-6.732v5.121h8.129v5.121H305.333z"/>
					<path fill="#FFFFFF" d="M331.87,150.62h0.537l10.779,26.537h-5.766l-1.038-2.757h-8.488l-1.002,2.757h-5.802L331.87,150.62z
						 M334.484,169.6l-2.328-6.661l-2.399,6.661H334.484z"/>
					<path fill="#FFFFFF" d="M359.518,177.157l-5.157-9.777h-2.471v9.777h-5.121v-25.606h10.099c9.133,0,10.027,12.857,2.507,15.042
						l5.945,10.564H359.518z M351.89,162.402h4.512c3.475,0,3.475-5.73,0-5.73h-4.512V162.402z"/>
					<path fill="#FFFFFF" d="M373.843,177.157h-5.121v-26.143h1.36l12.929,15.041v-14.468h5.157v26.107h-1.361l-12.964-14.468
						V177.157z"/>
				</g>
			</g>
			<g>
				<path fill="#5AA9E0" d="M203.194,289.34c6.911,0,13.392,1.825,19.003,5.003v-67.657h-66.172
					c4.366-5.756,6.961-12.931,6.961-20.713c0-18.951-15.363-34.313-34.312-34.313c-18.951,0-34.313,15.362-34.313,34.313
					c0,7.781,2.594,14.956,6.961,20.713H9.563c0.901,117.281,95.495,212.241,212.634,213.738v-78.846
					c-5.612,3.18-12.093,5.003-19.003,5.003c-21.33,0-38.62-17.29-38.62-38.621C164.573,306.632,181.864,289.34,203.194,289.34z"/>
				<g>
					<path fill="#FFFFFF" d="M65.8,274.401h-7.049v-25.605H65.8C81.554,248.796,81.554,274.401,65.8,274.401z M63.483,253.917
						v15.363H65.8c9.201,0,9.201-15.363,0-15.363H63.483z"/>
					<path fill="#FFFFFF" d="M82.054,274.401v-25.605h11.849v5.121h-7.116v5.121h6.222v5.121h-6.222v5.121H94.3v5.121H82.054z"/>
					<path fill="#FFFFFF" d="M106.084,274.938l-9.796-26.143h5.461l3.144,8.523l1.721,5.3l1.688-5.121l3.177-8.702h5.461
						l-9.796,26.143H106.084z"/>
					<path fill="#FFFFFF" d="M119.822,274.401v-25.605h11.849v5.121h-7.116v5.121h6.222v5.121h-6.222v5.121h7.513v5.121H119.822z"/>
					<path fill="#FFFFFF" d="M141.238,248.796v20.484h7.513v5.121h-12.246v-25.605H141.238z"/>
					<path fill="#FFFFFF" d="M164.209,248.366c16.284,0,16.284,26.394,0,26.394C147.926,274.76,147.926,248.366,164.209,248.366z
						 M164.209,253.63c-9.465,0-9.465,15.829,0,15.829C173.675,269.459,173.675,253.63,164.209,253.63z"/>
					<path fill="#FFFFFF" d="M180.861,274.401v-25.57h9.3c9.201,0,9.167,15.794,0,15.794h-4.567v9.776H180.861z M189.764,259.646
						c3.177,0,3.177-5.729,0-5.729h-4.17v5.729H189.764z"/>
				</g>
			</g>
			<g>
				<path fill="#E37976" d="M358.389,226.686c3.255,5.66,5.125,12.217,5.125,19.214c0,21.331-17.291,38.622-38.621,38.622
					c-21.329,0-38.62-17.291-38.62-38.622c0-6.996,1.869-13.554,5.124-19.214h-64.731v76.258
					c-6.137-5.761-14.389-9.295-23.471-9.295c-18.95,0-34.312,15.361-34.312,34.311c0,18.953,15.362,34.314,34.312,34.314
					c9.082,0,17.334-3.534,23.471-9.296v87.459c117.664-0.893,212.869-96.089,213.772-213.751H358.389z"/>
				<g>
					<path fill="#FFFFFF" d="M268.156,338.114h-7.05v-25.605h7.05C283.91,312.509,283.91,338.114,268.156,338.114z M265.84,317.63
						v15.363h2.316c9.201,0,9.201-15.363,0-15.363H265.84z"/>
					<path fill="#FFFFFF" d="M284.41,338.114v-25.605h11.849v5.121h-7.115v5.121h6.222v5.121h-6.222v5.121h7.513v5.121H284.41z"/>
					<path fill="#FFFFFF" d="M300.597,331.095c2.714,2.077,5.659,2.149,6.752,2.042c1.39-0.107,2.581-1.183,2.448-2.579
						c-0.099-1.468-1.125-2.112-2.448-2.614c-3.707-1.468-7.017-3.51-7.017-7.807c0-4.298,2.747-7.593,6.686-7.808
						c1.225-0.071,2.846-0.071,5.891,1.074l-0.596,4.942c-2.614-1.146-4.104-1.11-4.832-1.074c-1.688,0.107-2.449,1.433-2.35,2.865
						c0.132,1.433,1.291,2.077,2.647,2.578c3.674,1.469,6.852,3.761,6.852,7.843c0,4.262-2.715,7.521-7.149,7.771
						c-1.323,0.107-4.27-0.071-7.479-1.862L300.597,331.095z"/>
					<path fill="#FFFFFF" d="M318.604,338.114v-25.605h4.733v25.605H318.604z"/>
					<path fill="#FFFFFF" d="M339.621,338.258c-15.621,0-16.416-25.319,0-25.964c2.813-0.107,5.097,0.787,5.527,0.931l-0.563,5.192
						c-0.927-0.43-2.449-1.002-4.965-0.931c-9.564,0.358-9.135,15.65,0,15.65c0.431,0,0.894-0.072,1.324-0.144v-7.7h4.799v11.245
						C343.924,337.648,341.872,338.258,339.621,338.258z"/>
					<path fill="#FFFFFF" d="M355.676,338.114h-4.733v-26.143h1.258l11.948,15.041v-14.469h4.766v26.107h-1.258l-11.98-14.468
						V338.114z"/>
				</g>
			</g>
		</g>
	</g>
</g>
<g>
</g>
<g>
</g>
<g>
</g>
<g>
</g>
<g>
</g>
<g>
</g>
</svg>
