<?xml version="1.0" encoding="utf-8"?>
<!-- Generator: Adobe Illustrator 17.0.0, SVG Export Plug-In . SVG Version: 6.00 Build 0)  -->
<!DOCTYPE svg PUBLIC "-//W3C//DTD SVG 1.1//EN" "http://www.w3.org/Graphics/SVG/1.1/DTD/svg11.dtd">
<svg version="1.1" id="Capa_1" xmlns="http://www.w3.org/2000/svg" xmlns:xlink="http://www.w3.org/1999/xlink" x="0px" y="0px"
	 width="300px" height="300px" viewBox="0 0 300 300" enable-background="new 0 0 300 300" xml:space="preserve">
<g display="none">
	
		<circle display="inline" fill="none" stroke="#2C4C57" stroke-width="2" stroke-miterlimit="10" cx="149.644" cy="150.128" r="140.302"/>
	<g display="inline">
		<g>
			<circle fill="none" cx="149.726" cy="149.021" r="91.744"/>
			<path fill="#477E83" d="M55.215,133.026c-0.55-0.099-0.895-0.554-0.799-1.089c0.095-0.535,0.555-0.816,1.123-0.73
				c0.55,0.098,0.897,0.538,0.799,1.089C56.244,132.83,55.763,133.138,55.215,133.026z"/>
			<path fill="#477E83" d="M52.983,119.716l-0.944,3.039l-1.097-0.341l2.298-7.396l1.097,0.341l-0.948,3.053l8.892,2.763
				l-0.405,1.304L52.983,119.716z"/>
			<path fill="#477E83" d="M57.068,105.78l3.916,1.952l2.257-4.527l-3.916-1.952l0.608-1.221l9.359,4.664l-0.608,1.222l-4.389-2.187
				l-2.256,4.527l4.388,2.187l-0.603,1.209l-9.358-4.665L57.068,105.78z"/>
			<path fill="#477E83" d="M72.739,90.521l-2.367,3.306l3.066,2.195l2.637-3.684l0.921,0.659l-3.423,4.782l-8.504-6.087l3.288-4.593
				l0.922,0.66l-2.503,3.495l2.688,1.924l2.366-3.307L72.739,90.521z"/>
			<path fill="#477E83" d="M91.871,70.896c2.284,2.78,1.806,5.643-0.257,7.336c-2.133,1.753-4.99,1.331-6.999-1.115
				c-2.107-2.565-1.892-5.553,0.267-7.326C87.086,67.98,89.901,68.5,91.871,70.896z M85.709,76.178
				c1.418,1.726,3.623,2.504,5.266,1.156c1.654-1.359,1.339-3.649-0.168-5.484c-1.319-1.605-3.537-2.594-5.275-1.166
				C83.806,72.101,84.252,74.404,85.709,76.178z"/>
			<path fill="#477E83" d="M96.422,61.909c0.521-0.461,1.331-1.014,2.139-1.478c1.252-0.717,2.189-0.952,3.048-0.764
				c0.689,0.141,1.3,0.613,1.701,1.313c0.688,1.198,0.389,2.423-0.381,3.294l0.023,0.041c0.838-0.16,1.626,0.247,2.382,1.066
				c1.021,1.095,1.738,1.847,2.127,2.087l-1.21,0.694c-0.296-0.17-0.945-0.834-1.849-1.819c-0.986-1.096-1.741-1.29-2.828-0.719
				l-1.103,0.632l2.253,3.93l-1.171,0.671L96.422,61.909z M99.962,65.369l1.197-0.687c1.252-0.719,1.651-1.861,1.058-2.896
				c-0.672-1.171-1.813-1.195-3.059-0.499c-0.565,0.323-0.938,0.608-1.096,0.771L99.962,65.369z"/>
			<path fill="#477E83" d="M111.473,54.214l3.978,9.673l-1.249,0.513l-3.978-9.673L111.473,54.214z"/>
			<path fill="#477E83" d="M130.765,58.678c-0.532,0.361-1.603,1.001-2.971,1.352c-1.534,0.392-2.896,0.323-4.131-0.37
				c-1.087-0.62-1.974-1.834-2.378-3.414c-0.756-3.026,0.755-5.766,4.152-6.634c1.173-0.3,2.155-0.278,2.646-0.179l-0.044,1.148
				c-0.603-0.103-1.329-0.125-2.352,0.136c-2.466,0.631-3.683,2.575-3.034,5.116c0.657,2.572,2.594,3.695,4.954,3.092
				c0.857-0.219,1.413-0.489,1.676-0.717l-0.772-3.021l-2.06,0.526l-0.269-1.053l3.338-0.852L130.765,58.678z"/>
			<path fill="#477E83" d="M138.895,47.39l1.173,10.391l-1.341,0.151l-1.174-10.391L138.895,47.39z"/>
			<path fill="#477E83" d="M148.252,57.201l0.266-10.455l1.473,0.038l3.216,5.374c0.744,1.245,1.322,2.361,1.791,3.444l0.031-0.015
				c-0.088-1.398-0.088-2.671-0.047-4.299l0.111-4.375l1.271,0.033L156.1,57.399l-1.365-0.034l-3.186-5.389
				c-0.699-1.182-1.367-2.395-1.866-3.54l-0.047,0.014c0.044,1.32,0.044,2.577-0.001,4.314l-0.113,4.467L148.252,57.201z"/>
			<path fill="#477E83" d="M166.486,55.436l-1.707,3.012l-1.369-0.273l5.527-9.558l1.596,0.318l1.455,10.95l-1.414-0.281
				l-0.451-3.444L166.486,55.436z M170.055,55.071l-0.416-3.151c-0.094-0.715-0.125-1.353-0.16-1.977l-0.029-0.006
				c-0.273,0.578-0.564,1.168-0.887,1.752l-1.596,2.767L170.055,55.071z"/>
			<path fill="#477E83" d="M182.619,52.194l1.268,0.467l-3.219,8.755l4.195,1.542l-0.391,1.064l-5.465-2.008L182.619,52.194z"/>
			<path fill="#477E83" d="M204.994,63.162c0.557,0.232,1.375,0.683,2.156,1.219c1.111,0.765,1.695,1.449,1.934,2.252
				c0.219,0.64,0.135,1.336-0.33,2.013c-0.572,0.832-1.623,1.182-2.76,0.889l-0.016,0.026c0.676,0.768,1.168,2.104,0.289,3.382
				c-0.51,0.742-1.189,1.102-1.914,1.225c-0.979,0.136-2.127-0.276-3.533-1.244c-0.766-0.527-1.318-0.982-1.654-1.289
				L204.994,63.162z M200.84,71.582c0.191,0.188,0.502,0.421,0.898,0.693c1.15,0.792,2.502,1.1,3.363-0.153
				c0.809-1.176,0.133-2.356-1.082-3.192l-0.92-0.633L200.84,71.582z M203.68,67.453l1.01,0.695c1.176,0.809,2.289,0.67,2.859-0.161
				c0.695-1.009,0.201-1.934-0.924-2.706c-0.512-0.352-0.832-0.517-1.037-0.602L203.68,67.453z"/>
			<path fill="#477E83" d="M217.559,72.703c0.594,0.367,1.357,0.98,2.035,1.619c1.051,0.989,1.549,1.82,1.619,2.697
				c0.063,0.7-0.211,1.422-0.766,2.01c-0.947,1.005-2.207,1.075-3.264,0.591l-0.033,0.033c0.396,0.757,0.236,1.629-0.328,2.591
				c-0.752,1.295-1.264,2.2-1.383,2.642l-1.016-0.957c0.078-0.332,0.525-1.146,1.205-2.298c0.764-1.263,0.729-2.042-0.131-2.917
				l-0.926-0.872l-3.107,3.298l-0.982-0.928L217.559,72.703z M215.275,77.096l1.004,0.947c1.051,0.989,2.26,1.041,3.08,0.172
				c0.926-0.984,0.619-2.083-0.41-3.074c-0.475-0.447-0.855-0.722-1.057-0.824L215.275,77.096z"/>
			<path fill="#477E83" d="M224.047,89.754l-3.27,1.142l-0.85-1.108l10.457-3.546l0.99,1.293l-6.123,9.194l-0.877-1.144l1.93-2.888
				L224.047,89.754z M226.971,91.833l1.764-2.644c0.4-0.6,0.799-1.1,1.184-1.591l-0.018-0.025c-0.588,0.254-1.195,0.506-1.824,0.733
				l-3.021,1.028L226.971,91.833z"/>
			<path fill="#477E83" d="M229.156,102.904l9.258-4.865l0.686,1.305l-3.125,5.428c-0.725,1.258-1.418,2.305-2.135,3.244
				l0.029,0.021c1.178-0.76,2.289-1.38,3.732-2.138l3.873-2.035l0.594,1.125l-9.26,4.865l-0.635-1.208l3.152-5.409
				c0.691-1.188,1.424-2.361,2.182-3.354l-0.035-0.034c-1.133,0.682-2.23,1.294-3.768,2.103l-3.957,2.079L229.156,102.904z"/>
			<path fill="#477E83" d="M245.773,114.199c0.367,0.747,0.752,1.651,1.078,2.671c0.588,1.849,0.578,3.302,0.043,4.433
				c-0.531,1.146-1.52,2.032-3.131,2.545c-1.627,0.518-3.119,0.439-4.332-0.201c-1.229-0.636-2.223-2.013-2.84-3.951
				c-0.291-0.917-0.492-1.699-0.625-2.374L245.773,114.199z M237.367,118.293c0.045,0.344,0.182,0.822,0.342,1.325
				c0.875,2.751,2.889,3.755,5.582,2.898c2.355-0.734,3.426-2.541,2.559-5.262c-0.213-0.666-0.432-1.149-0.613-1.466
				L237.367,118.293z"/>
			<path fill="#477E83" d="M245.258,141.365c0.559-0.031,0.998,0.333,1.029,0.875c0.029,0.542-0.352,0.921-0.924,0.969
				c-0.559,0.032-0.998-0.316-1.029-0.874C244.303,141.792,244.699,141.381,245.258,141.365z"/>
		</g>
		<g>
			<circle fill="none" cx="149.727" cy="155.671" r="91.744"/>
			<path fill="#477E83" d="M55.712,164.675c0.19,0.633,0.389,1.468,0.525,2.545c0.169,1.323-0.017,2.333-0.493,3.018
				c-0.419,0.632-1.131,1.066-2.054,1.184c-0.939,0.119-1.713-0.063-2.317-0.519c-0.845-0.613-1.376-1.719-1.541-3.026
				c-0.051-0.399-0.083-0.771-0.046-1.089l-4.154,0.527l-0.17-1.34L55.712,164.675z M50.88,166.648
				c-0.04,0.302-0.023,0.676,0.032,1.121c0.205,1.616,1.115,2.502,2.546,2.32c1.371-0.174,1.909-1.227,1.722-2.704
				c-0.075-0.585-0.177-1.026-0.268-1.249L50.88,166.648z"/>
			<path fill="#477E83" d="M58.132,178.812c0.322,0.617,0.666,1.536,0.923,2.431c0.397,1.387,0.399,2.354,0.013,3.143
				c-0.302,0.635-0.907,1.115-1.683,1.338c-1.327,0.38-2.446-0.203-3.106-1.159l-0.045,0.013c-0.047,0.852-0.631,1.52-1.606,2.057
				c-1.307,0.73-2.207,1.246-2.535,1.566l-0.385-1.342c0.237-0.245,1.037-0.717,2.208-1.359c1.302-0.695,1.669-1.383,1.377-2.572
				l-0.351-1.223l-4.354,1.247l-0.372-1.298L58.132,178.812z M53.925,181.42l0.381,1.328c0.398,1.387,1.41,2.049,2.559,1.72
				c1.298-0.372,1.595-1.474,1.217-2.851c-0.18-0.626-0.367-1.056-0.487-1.248L53.925,181.42z"/>
			<path fill="#477E83" d="M60.067,199.656l-1.689-3.695l-3.427,1.567l1.882,4.119l-1.03,0.471l-2.443-5.347l9.509-4.347
				l2.347,5.135l-1.029,0.472l-1.786-3.908l-3.006,1.373l1.689,3.697L60.067,199.656z"/>
			<path fill="#477E83" d="M69.155,215.245c1.16-0.887,2.556-1.952,3.641-2.674l-0.027-0.038c-1.213,0.396-2.534,0.772-4.021,1.15
				l-5.231,1.336l-0.576-0.846l3.157-4.204c0.938-1.241,1.815-2.349,2.675-3.291l-0.017-0.026c-1.095,0.709-2.586,1.635-3.933,2.441
				l-3.859,2.297l-0.726-1.063l9.045-5.295l0.971,1.422l-3.17,4.325c-0.818,1.085-1.565,2.026-2.313,2.857l0.027,0.038
				c1.019-0.377,2.177-0.717,3.528-1.076l5.227-1.314l0.971,1.422l-8.267,6.434l-0.743-1.088L69.155,215.245z"/>
			<path fill="#477E83" d="M81.173,220.396l-7.657,7.117l-0.919-0.988l7.657-7.117L81.173,220.396z"/>
			<path fill="#477E83" d="M88.239,227.192l-3.918,4.793c-1.482,1.814-1.307,3.241-0.225,4.125c1.2,0.981,2.617,0.817,4.08-0.972
				l3.919-4.794l1.057,0.864l-3.858,4.721c-2.033,2.486-4.178,2.438-5.932,1.004c-1.657-1.355-2.131-3.325-0.078-5.836l3.897-4.77
				L88.239,227.192z"/>
			<path fill="#477E83" d="M104.992,245.379c0.632-1.316,1.393-2.9,2.032-4.037l-0.041-0.021c-0.902,0.904-1.909,1.839-3.065,2.852
				l-4.057,3.565l-0.899-0.491l0.908-5.184c0.271-1.531,0.554-2.917,0.891-4.148l-0.027-0.015c-0.654,1.129-1.563,2.63-2.398,3.96
				l-2.398,3.802l-1.13-0.619l5.663-8.827l1.511,0.828l-0.863,5.295c-0.237,1.34-0.476,2.519-0.765,3.598l0.04,0.022
				c0.738-0.799,1.616-1.627,2.658-2.562l4.063-3.544l1.512,0.827l-4.451,9.49l-1.158-0.635L104.992,245.379z"/>
			<path fill="#477E83" d="M125.028,257.476l-0.953-10.956l1.42,0.33l0.419,5.385c0.118,1.478,0.208,2.805,0.201,4.061l0.03,0.007
				c0.562-1.11,1.283-2.297,2.047-3.521l2.893-4.63l1.404,0.327l-6.011,9.334L125.028,257.476z"/>
			<path fill="#477E83" d="M141.005,249.559l-1.052,10.41l-1.344-0.137l1.052-10.408L141.005,249.559z"/>
			<path fill="#477E83" d="M149.833,260.508l-0.383-10.454l1.473-0.054l3.544,5.166c0.82,1.197,1.465,2.275,2.002,3.328l0.029-0.018
				c-0.176-1.391-0.252-2.662-0.313-4.291l-0.16-4.373l1.271-0.046l0.383,10.453l-1.363,0.05l-3.516-5.182
				c-0.771-1.137-1.512-2.306-2.082-3.419l-0.046,0.018c0.126,1.315,0.204,2.57,0.267,4.308l0.166,4.467L149.833,260.508z"/>
			<path fill="#477E83" d="M167.801,249.414l-3.121,0.625l-0.227-1.126l7.596-1.522l0.227,1.127l-3.135,0.628l1.828,9.132
				l-1.338,0.269L167.801,249.414z"/>
			<path fill="#477E83" d="M181.926,251.938l0.08,3.462l-1.316,0.468l-0.158-11.04l1.533-0.546l6.867,8.652l-1.359,0.483
				l-2.154-2.724L181.926,251.938z M184.801,249.794l-1.975-2.491c-0.447-0.565-0.801-1.098-1.15-1.616l-0.029,0.011
				c0.063,0.637,0.115,1.293,0.139,1.96l0.049,3.192L184.801,249.794z"/>
			<path fill="#477E83" d="M203.922,244.881c-0.424,0.484-1.295,1.376-2.529,2.062c-1.385,0.769-2.721,1.048-4.09,0.69
				c-1.209-0.323-2.375-1.272-3.166-2.697c-1.5-2.734-0.734-5.768,2.332-7.47c1.057-0.587,2.012-0.816,2.512-0.845l0.25,1.121
				c-0.609,0.055-1.316,0.217-2.24,0.729c-2.225,1.236-2.908,3.426-1.635,5.719c1.289,2.319,3.445,2.914,5.576,1.73
				c0.771-0.429,1.242-0.831,1.438-1.117l-1.514-2.727l-1.859,1.031l-0.527-0.949l3.012-1.672L203.922,244.881z"/>
			<path fill="#477E83" d="M213.498,232.568l-3.201,2.506l2.322,2.969l3.568-2.791l0.697,0.892l-4.631,3.624l-6.445-8.237
				l4.449-3.479l0.699,0.892l-3.385,2.648l2.035,2.603l3.201-2.504L213.498,232.568z"/>
			<path fill="#477E83" d="M229.383,221.231c0.666-0.248,1.455-0.754,2.025-1.488c0.85-1.089,0.771-2.173-0.061-2.821
				c-0.771-0.602-1.555-0.505-2.85,0.274c-1.527,0.974-2.873,1.262-4.035,0.355c-1.285-1.001-1.41-2.81-0.158-4.412
				c0.656-0.845,1.33-1.304,1.824-1.508l0.639,0.971c-0.357,0.154-1.031,0.515-1.613,1.261c-0.877,1.125-0.537,2.078,0.025,2.517
				c0.771,0.601,1.541,0.396,2.867-0.399c1.627-0.975,2.854-1.159,4.064-0.215c1.271,0.992,1.639,2.793,0.121,4.738
				c-0.621,0.795-1.529,1.482-2.166,1.693L229.383,221.231z"/>
			<path fill="#477E83" d="M232.459,203.322l-1.568,2.767l-0.998-0.565l3.818-6.736l1,0.566l-1.578,2.78l8.1,4.592l-0.674,1.188
				L232.459,203.322z"/>
			<path fill="#477E83" d="M247.516,193.303l-4.156-1.562l-6.797,0.976l0.539-1.438l3.221-0.365
				c0.883-0.099,1.588-0.166,2.385-0.214l0.012-0.029c-0.537-0.517-1.049-1.091-1.648-1.747L238.9,186.5l0.541-1.438l4.387,5.396
				l4.17,1.566L247.516,193.303z"/>
			<path fill="#477E83" d="M241.35,178.138l0.285-1.319l9.117,1.971l0.943-4.368l1.107,0.239l-1.23,5.688L241.35,178.138z"/>
			<path fill="#477E83" d="M249.529,159.935l-0.289,4.053l3.76,0.269l0.322-4.518l1.129,0.08l-0.418,5.863l-10.426-0.742l0.4-5.632
				l1.129,0.081l-0.305,4.285l3.295,0.234l0.289-4.054L249.529,159.935z"/>
		</g>
	</g>
</g>
<g>
	
		<circle fill="none" stroke="#F4AE32" stroke-width="9" stroke-miterlimit="10" stroke-dasharray="3.0089,4.0118" cx="150.631" cy="150.898" r="136.316"/>
</g>
<circle fill="none" stroke="#D22564" stroke-width="2" stroke-miterlimit="10" cx="150.631" cy="150.898" r="131.339"/>
<g>
	<path fill="none" stroke="#F4AE32" stroke-width="2" stroke-miterlimit="10" stroke-dasharray="3.0037,4.0049" d="M224.722,166.667
		c-7.3,32.079-35.401,57.992-68.62,60.13c-28.948,1.863-58.088-13.201-72.819-38.281"/>
	<path fill="none" stroke="#F4AE32" stroke-width="2" stroke-miterlimit="10" stroke-dasharray="3.0037,4.0049" d="M77.005,126.758
		c10.841-31.827,42.679-54.81,76.555-52.8c24.005,1.425,47.144,14.369,60.636,34.321"/>
</g>
<circle fill="none" stroke="#D22564" stroke-width="2" stroke-miterlimit="10" cx="150.272" cy="150.507" r="141.542"/>
<line fill="none" x1="57.449" y1="184.935" x2="265.551" y2="153.565"/>
<g enable-background="new    ">
	<path fill="#232E5F" d="M70.741,182.931l-7.388,1.114l-2.665,0.401l-1.162-45.628l2.926-0.441c1.352-0.203,2.709-0.408,4.07-0.613
		s3.046-0.459,5.055-0.763c2.009-0.303,3.883-0.311,5.626-0.026c1.741,0.286,3.171,0.796,4.289,1.527
		c2.099,1.347,3.362,3.438,3.789,6.271c0.664,4.403-0.551,8.004-3.645,10.8c-0.994,0.875-2.124,1.632-3.391,2.273
		c2.482-0.042,4.635,0.612,6.458,1.962c1.956,1.446,3.125,3.428,3.504,5.944c0.38,2.517,0.236,4.744-0.429,6.685
		c-0.666,1.939-1.791,3.616-3.375,5.029C81.417,180.187,76.863,182.008,70.741,182.931z M67.693,157.614l3.013-0.454
		c3.013-0.454,5.342-1.644,6.987-3.569c1.729-2.018,2.368-4.53,1.915-7.538c-0.488-3.24-2.354-5.007-5.598-5.295
		c-1.124-0.11-2.124-0.1-3.003,0.033c-0.879,0.132-1.506,0.227-1.883,0.283c-0.376,0.057-0.796,0.12-1.26,0.19
		c-1.043,0.157-1.885,0.344-2.522,0.563l0.438,16.075C66.361,157.815,66.998,157.719,67.693,157.614z M71.401,178.861
		c8.169-1.231,11.777-5.003,10.826-11.314c-0.772-5.122-4.249-7.217-10.429-6.285c-1.873,0.282-3.853,0.581-5.938,0.896
		l0.419,16.922C67.261,179.301,68.968,179.229,71.401,178.861z"/>
</g>
<g enable-background="new    ">
	<path fill="#232E5F" d="M105.552,158.365l-3.737,0.563l0.473,19.245l-5.735,0.865l-1.163-45.628l2.955-0.446l8.951-1.35
		c4.423-0.667,7.917-0.285,10.483,1.146c2.633,1.479,4.214,3.976,4.744,7.491c0.804,5.33-0.521,9.707-3.975,13.132
		c-1.151,1.142-2.528,2.099-4.129,2.874c1.812,1.403,3.531,3.708,5.16,6.913c3.306,5.419,5.286,8.567,5.942,9.443
		c0.655,0.878,1.157,1.488,1.505,1.829l-6.575,0.992c-1.085-1.164-2.775-3.931-5.074-8.299c-2.948-6.193-5.499-9.226-7.652-9.1
		C106.99,158.147,106.266,158.257,105.552,158.365z M101.699,154.235c0.367-0.055,0.851-0.128,1.449-0.219l1.854-0.279
		c0.638-0.096,1.246-0.188,1.825-0.275l1.333-0.2c3.302-0.498,5.643-1.938,7.021-4.322c1.207-2.078,1.58-4.647,1.118-7.711
		c-0.659-4.37-3.663-6.152-9.013-5.346c-2.491,0.375-4.485,0.837-5.983,1.385L101.699,154.235z"/>
</g>
<g enable-background="new    ">
	<path fill="#232E5F" d="M142.867,126.252l6.345-0.957l15.039,43.536l-5.736,0.864l-3.641-11.183l-17.208,2.595l-3.543,12.267
		l-6.112,0.921L142.867,126.252z M153.459,154.252l-6.387-19.769l-0.892-3.355l-7.177,25.304L153.459,154.252z"/>
</g>
<g enable-background="new    ">
	<path fill="#232E5F" d="M168.879,122.329l5.968-0.9l17.443,29.23l2.741,5.797l-0.551-7.387l-0.949-30.458l5.446-0.821l1.162,45.628
		l-5.591,0.844l-17.877-29.155l-2.549-6.489l0.52,8.75l0.758,29.78l-5.359,0.809L168.879,122.329z"/>
</g>
<g enable-background="new    ">
	<path fill="#232E5F" d="M212.586,115.739l8.98-1.354c5.639-0.85,10.127,0.165,13.465,3.045c3.139,2.736,5.151,7.048,6.04,12.939
		c1.131,7.498,0.061,14.027-3.209,19.586c-2.199,3.756-5.206,6.536-9.022,8.345c-1.755,0.813-3.655,1.373-5.702,1.682
		c-0.521,0.078-0.946,0.143-1.274,0.192l-1.796,0.271c-0.29,0.044-0.575,0.087-0.854,0.129c-0.28,0.042-0.662,0.1-1.145,0.172
		c-0.482,0.073-0.995,0.15-1.535,0.232l-1.593,0.24c-0.521,0.078-0.985,0.148-1.391,0.209l-2.926,0.441l-1.167-45.657
		L212.586,115.739z M216.172,155.831c1.821,0.289,3.9,0.257,6.237-0.096c5.465-0.824,9.265-3.917,11.399-9.279
		c1.746-4.397,2.194-9.418,1.344-15.059c-0.818-5.429-2.4-9.108-4.745-11.038c-2.21-1.813-5.525-2.387-9.947-1.72
		c-2.105,0.317-3.815,0.763-5.132,1.336L216.172,155.831z"/>
</g>
<line fill="none" x1="113.899" y1="121.935" x2="322" y2="90.565"/>
<g enable-background="new    ">
	<path fill="#FF1657" d="M116.772,109.8l-3.505,0.528l-0.007-1.274l8.569-1.291l0.016,1.273l-3.447,0.52l0.288,11.659l-1.625,0.245
		L116.772,109.8z"/>
</g>
<g enable-background="new    ">
	<path fill="#FF1657" d="M123.74,107.475l6.295-0.949l0.132,1.265l-4.769,0.719l0.112,4.474l3.595-0.542l0.093,1.288l-3.636,0.548
		l0.084,4.57l5.745-0.866l0.079,1.305l-7.403,1.116L123.74,107.475z"/>
</g>
<g enable-background="new    ">
	<path fill="#FF1657" d="M133.077,106.068l1.625-0.245l0.293,11.523l4.678-0.705l0.027,1.406l-6.295,0.948L133.077,106.068z"/>
</g>
<g enable-background="new    ">
	<path fill="#FF1657" d="M141.11,104.857l1.625-0.245l0.292,11.523l4.678-0.705l0.027,1.406l-6.295,0.948L141.11,104.857z"/>
</g>
<g enable-background="new    ">
	<path fill="#FF1657" d="M149.287,103.625l1.625-0.245l0.327,12.928l-1.625,0.245L149.287,103.625z"/>
</g>
<g enable-background="new    ">
	<path fill="#FF1657" d="M153.882,102.932l1.691-0.255l4.94,8.283l0.776,1.643l-0.155-2.094l-0.269-8.63l1.544-0.232l0.327,12.928
		l-1.584,0.239l-5.063-8.261l-0.722-1.838l0.146,2.479l0.214,8.437l-1.519,0.229L153.882,102.932z"/>
</g>
<g enable-background="new    ">
	<path fill="#FF1657" d="M172.905,102.155c-0.725-0.388-1.691-0.491-2.9-0.309c-1.007,0.151-1.815,0.617-2.426,1.394
		c-0.785,0.991-1.17,2.304-1.152,3.938c0.008,0.425,0.027,0.742,0.059,0.95c0.032,0.208,0.063,0.404,0.093,0.587
		s0.093,0.438,0.187,0.764c0.094,0.326,0.207,0.634,0.341,0.927c0.134,0.292,0.29,0.56,0.47,0.804
		c0.18,0.244,0.385,0.447,0.617,0.611c0.495,0.352,1.064,0.479,1.711,0.381c0.864-0.13,1.721-0.464,2.569-1l-0.065-2.995
		l-1.904,0.287l-0.033-1.33l3.505-0.528l0.113,5.313c-0.156,0.041-0.324,0.1-0.503,0.176l-1.231,0.572
		c-0.915,0.429-1.691,0.69-2.328,0.786c-0.638,0.096-1.161,0.104-1.57,0.021c-0.41-0.083-0.785-0.225-1.123-0.425
		c-0.338-0.202-0.641-0.454-0.907-0.757s-0.5-0.637-0.7-1c-0.41-0.753-0.677-1.542-0.801-2.365c-0.124-0.824-0.17-1.563-0.138-2.215
		c0.033-0.653,0.136-1.276,0.307-1.867c0.171-0.591,0.408-1.134,0.712-1.628c0.303-0.495,0.655-0.931,1.058-1.307
		c0.841-0.77,1.831-1.241,2.969-1.412c1.057-0.159,2.067-0.155,3.032,0.014l0.325,0.042L172.905,102.155z"/>
</g>
<line fill="none" x1="122.899" y1="201.935" x2="331" y2="170.565"/>
<g enable-background="new    ">
	<path fill="#FF1657" d="M123.318,199.786c0.342,0.262,0.968,0.407,1.879,0.436c0.281,0.007,0.568-0.012,0.861-0.056
		c0.292-0.045,0.59-0.123,0.892-0.234c0.302-0.112,0.565-0.26,0.789-0.443c0.491-0.416,0.688-0.953,0.589-1.608
		c-0.072-0.482-0.229-0.852-0.47-1.108c-0.408-0.448-0.974-0.836-1.694-1.165c-0.872-0.4-1.489-0.764-1.853-1.09
		c-0.735-0.653-1.169-1.411-1.299-2.271c-0.147-0.98,0.087-1.818,0.703-2.515c0.607-0.689,1.482-1.121,2.626-1.293
		c1.248-0.188,2.222-0.097,2.921,0.273l-0.326,1.345c-0.538-0.413-1.305-0.545-2.301-0.396c-0.613,0.093-1.058,0.245-1.333,0.455
		c-0.276,0.21-0.472,0.436-0.588,0.674c-0.138,0.276-0.18,0.586-0.128,0.933c0.053,0.347,0.127,0.626,0.224,0.835
		c0.096,0.21,0.238,0.408,0.429,0.596c0.305,0.309,0.868,0.654,1.693,1.04c0.843,0.393,1.44,0.74,1.794,1.042
		c0.713,0.606,1.129,1.308,1.249,2.104c0.167,1.104-0.108,2.025-0.825,2.765c-0.684,0.702-1.677,1.15-2.979,1.347
		c-0.963,0.145-1.845,0.108-2.645-0.113c-0.21-0.058-0.365-0.118-0.464-0.182L123.318,199.786z"/>
</g>
<g enable-background="new    ">
	<path fill="#FF1657" d="M134.348,188.507l-3.505,0.528l-0.008-1.275l8.569-1.292l0.016,1.274l-3.447,0.52l0.288,11.658
		l-1.625,0.245L134.348,188.507z"/>
</g>
<g enable-background="new    ">
	<path fill="#FF1657" d="M145.579,198.523c-0.624,0.095-1.205,0.046-1.743-0.147s-1.009-0.495-1.412-0.905
		c-0.836-0.861-1.373-2.092-1.614-3.689c-0.197-1.307-0.142-2.553,0.166-3.741c0.314-1.217,0.865-2.223,1.652-3.018
		c0.801-0.813,1.757-1.305,2.867-1.472c1.274-0.192,2.349,0.156,3.221,1.044c0.834,0.851,1.367,2.052,1.603,3.607
		c0.313,2.075,0.053,3.895-0.781,5.456C148.666,197.303,147.347,198.257,145.579,198.523z M145.72,197.228
		c1.144-0.173,1.99-0.92,2.541-2.241c0.516-1.223,0.654-2.622,0.416-4.2c-0.334-2.218-1.028-3.498-2.082-3.843
		c-0.347-0.108-0.725-0.131-1.136-0.069c-0.41,0.063-0.774,0.196-1.093,0.401c-0.319,0.205-0.602,0.467-0.849,0.782
		c-0.245,0.317-0.452,0.681-0.619,1.094c-0.517,1.25-0.662,2.626-0.436,4.129c0.229,1.514,0.612,2.584,1.151,3.208
		C144.153,197.111,144.854,197.357,145.72,197.228z"/>
</g>
<g enable-background="new    ">
	<path fill="#FF1657" d="M155.486,191.547l-1.059,0.16l0.134,5.453l-1.625,0.245l-0.329-12.929l0.837-0.126l2.536-0.382
		c1.253-0.189,2.243-0.081,2.971,0.324c0.745,0.42,1.193,1.127,1.344,2.123c0.228,1.51-0.148,2.75-1.126,3.721
		c-0.326,0.323-0.717,0.594-1.171,0.814c0.514,0.396,1.002,1.051,1.463,1.959c0.937,1.534,1.498,2.426,1.684,2.676
		c0.186,0.248,0.328,0.42,0.427,0.518l-1.863,0.281c-0.308-0.331-0.786-1.115-1.438-2.352c-0.835-1.755-1.558-2.613-2.169-2.578
		C155.895,191.486,155.689,191.518,155.486,191.547z M154.395,190.377c0.104-0.016,0.241-0.037,0.41-0.063l0.525-0.078
		c0.181-0.027,0.354-0.055,0.518-0.078l0.378-0.058c0.936-0.142,1.599-0.548,1.989-1.224c0.342-0.588,0.448-1.316,0.317-2.184
		c-0.187-1.24-1.039-1.744-2.555-1.516c-0.705,0.107-1.271,0.236-1.694,0.392L154.395,190.377z"/>
</g>
<g enable-background="new    ">
	<path fill="#FF1657" d="M163.187,182.883l1.625-0.245l0.329,12.929l-1.626,0.244L163.187,182.883z"/>
</g>
<g enable-background="new    ">
	<path fill="#FF1657" d="M167.805,182.186l6.296-0.949l0.132,1.266l-4.769,0.72l0.112,4.474l3.595-0.543l0.094,1.287l-3.637,0.549
		l0.085,4.57l5.745-0.865l0.08,1.305l-7.403,1.117L167.805,182.186z"/>
</g>
<g enable-background="new    ">
	<path fill="#FF1657" d="M176.962,191.697c0.342,0.262,0.968,0.407,1.879,0.436c0.281,0.007,0.568-0.012,0.861-0.056
		c0.292-0.045,0.59-0.123,0.892-0.234c0.302-0.112,0.565-0.26,0.789-0.443c0.491-0.416,0.688-0.953,0.589-1.608
		c-0.072-0.482-0.229-0.852-0.47-1.108c-0.408-0.448-0.974-0.836-1.694-1.165c-0.872-0.4-1.489-0.764-1.853-1.09
		c-0.735-0.653-1.169-1.411-1.299-2.271c-0.147-0.98,0.087-1.818,0.703-2.515c0.607-0.689,1.482-1.121,2.626-1.293
		c1.248-0.188,2.222-0.097,2.921,0.273l-0.326,1.345c-0.538-0.413-1.305-0.545-2.301-0.396c-0.613,0.093-1.058,0.245-1.333,0.455
		c-0.276,0.21-0.472,0.436-0.588,0.674c-0.138,0.276-0.18,0.586-0.128,0.933c0.053,0.347,0.127,0.626,0.224,0.835
		c0.096,0.21,0.238,0.408,0.429,0.596c0.305,0.309,0.868,0.654,1.693,1.04c0.843,0.393,1.44,0.74,1.794,1.042
		c0.713,0.606,1.129,1.308,1.249,2.104c0.167,1.104-0.108,2.025-0.825,2.765c-0.684,0.702-1.677,1.15-2.979,1.347
		c-0.963,0.145-1.845,0.108-2.645-0.113c-0.21-0.058-0.365-0.118-0.464-0.182L176.962,191.697z"/>
</g>
<circle fill="none" cx="150" cy="150" r="97"/>
<circle fill="none" cx="150" cy="150.333" r="97"/>
<g>
	<circle fill="none" cx="150" cy="150" r="100"/>
	<path fill="#B784E1" d="M91.015,69.24l-0.486,0.357l-4.746-6.445l-2.241,1.65l-0.333-0.453l4.969-3.658l0.333,0.453l-2.242,1.65
		L91.015,69.24z"/>
	<path fill="#B784E1" d="M99.458,63.638l-0.511,0.321l-2.243-3.566l-4.236,2.664l2.243,3.566l-0.506,0.318l-4.561-7.251l0.506-0.318
		l2.025,3.219l4.235-2.664l-2.024-3.219l0.511-0.321L99.458,63.638z"/>
	<path fill="#B784E1" d="M105.853,55.405c0.621,1.209,0.81,2.321,0.566,3.335c-0.244,1.014-0.897,1.794-1.961,2.339
		c-1.06,0.544-2.073,0.619-3.039,0.226c-0.966-0.394-1.761-1.199-2.385-2.415c-0.622-1.213-0.807-2.324-0.555-3.334
		s0.907-1.786,1.963-2.328c1.063-0.545,2.075-0.623,3.036-0.231C104.439,53.39,105.23,54.192,105.853,55.405z M99.618,58.604
		c0.56,1.091,1.236,1.811,2.028,2.157s1.644,0.286,2.555-0.182c0.917-0.471,1.467-1.126,1.648-1.965
		c0.182-0.84-0.01-1.811-0.576-2.912c-0.563-1.098-1.238-1.815-2.023-2.152c-0.786-0.337-1.633-0.272-2.544,0.195
		c-0.907,0.466-1.455,1.12-1.644,1.963C98.875,56.551,99.06,57.517,99.618,58.604z"/>
	<path fill="#B784E1" d="M112.074,48.193l2.089,5.135c0.371,0.912,0.396,1.732,0.078,2.46c-0.319,0.729-0.951,1.285-1.896,1.669
		c-0.919,0.374-1.741,0.408-2.467,0.102c-0.726-0.306-1.276-0.92-1.651-1.843l-2.08-5.113l0.559-0.228l2.089,5.135
		c0.311,0.763,0.764,1.271,1.36,1.524c0.596,0.253,1.281,0.222,2.056-0.093c0.756-0.308,1.257-0.755,1.503-1.342
		c0.246-0.587,0.218-1.251-0.083-1.993l-2.11-5.188L112.074,48.193z"/>
	<path fill="#B784E1" d="M119.251,50.288l3.016-0.937l1.159,3.732c-0.687,0.581-1.524,1.025-2.513,1.333
		c-1.291,0.401-2.393,0.344-3.308-0.172c-0.915-0.516-1.58-1.441-1.995-2.776c-0.258-0.832-0.317-1.623-0.175-2.373
		s0.476-1.398,1.003-1.946s1.203-0.951,2.027-1.207c0.892-0.277,1.743-0.361,2.554-0.253l-0.07,0.586
		c-0.811-0.108-1.597-0.044-2.357,0.192c-1.078,0.334-1.83,0.933-2.255,1.795c-0.426,0.862-0.463,1.859-0.112,2.989
		c0.382,1.231,0.97,2.063,1.764,2.498c0.793,0.435,1.772,0.471,2.936,0.11c0.753-0.234,1.36-0.539,1.82-0.915l-0.894-2.876
		l-2.434,0.756L119.251,50.288z"/>
	<path fill="#B784E1" d="M131.545,51.65l-0.589,0.129l-0.901-4.115l-4.888,1.07l0.901,4.115l-0.583,0.128l-1.833-8.368l0.584-0.128
		l0.813,3.715l4.888-1.07l-0.813-3.715l0.589-0.129L131.545,51.65z"/>
	<path fill="#B784E1" d="M136.002,50.971l-0.598,0.085l-1.134-7.923l-2.755,0.394l-0.08-0.557l6.107-0.875l0.08,0.557l-2.755,0.395
		L136.002,50.971z"/>
	<path fill="#B784E1" d="M140.515,50.437l-0.596,0.049l-0.701-8.538l4.678-0.384l0.045,0.549l-4.082,0.335l0.297,3.621l3.854-0.316
		l0.045,0.555l-3.854,0.316L140.515,50.437z"/>
	<path fill="#B784E1" d="M151.947,41.389l0.09,5.542c0.016,0.984-0.258,1.759-0.818,2.322c-0.563,0.564-1.352,0.854-2.371,0.871
		c-0.992,0.016-1.771-0.25-2.336-0.797c-0.566-0.548-0.856-1.319-0.873-2.315l-0.09-5.519l0.604-0.01l0.09,5.542
		c0.014,0.824,0.252,1.462,0.717,1.914c0.464,0.451,1.114,0.67,1.95,0.657c0.816-0.013,1.445-0.249,1.888-0.708
		c0.441-0.458,0.656-1.088,0.643-1.889l-0.09-5.601L151.947,41.389z"/>
	<path fill="#B784E1" d="M154.262,50.072l0.517-8.551l0.597,0.036l-0.483,7.99l4.077,0.246l-0.034,0.562L154.262,50.072z"/>
	<path fill="#B784E1" d="M163.156,48.603c0.087-0.532,0.303-0.962,0.647-1.289c0.345-0.328,0.938-0.636,1.782-0.925l-0.356-0.545
		c-0.209-0.315-0.354-0.614-0.435-0.897c-0.08-0.282-0.097-0.566-0.051-0.851c0.091-0.551,0.347-0.958,0.768-1.222
		c0.422-0.263,0.942-0.344,1.563-0.242c0.598,0.098,1.045,0.332,1.343,0.701c0.297,0.37,0.4,0.83,0.311,1.381
		c-0.066,0.405-0.263,0.754-0.588,1.047s-0.874,0.588-1.647,0.885l2.181,3.071c0.28-0.239,0.53-0.508,0.75-0.809
		c0.22-0.3,0.428-0.664,0.624-1.091l0.556,0.091c-0.398,0.909-0.937,1.664-1.613,2.265l1.284,1.802l-0.78-0.128l-0.93-1.322
		c-0.411,0.289-0.769,0.491-1.072,0.605c-0.305,0.114-0.628,0.187-0.972,0.218c-0.343,0.03-0.725,0.011-1.146-0.058
		c-0.806-0.132-1.406-0.435-1.802-0.907C163.178,49.909,163.039,49.316,163.156,48.603z M165.501,50.775
		c0.493,0.081,0.959,0.071,1.397-0.029c0.438-0.101,0.888-0.316,1.351-0.648l-2.333-3.263c-0.569,0.191-0.987,0.366-1.252,0.522
		c-0.266,0.156-0.47,0.34-0.613,0.55s-0.24,0.467-0.29,0.771c-0.09,0.551,0.019,1.013,0.325,1.384
		C164.394,50.433,164.865,50.67,165.501,50.775z M165.365,44.186c-0.05,0.305-0.02,0.599,0.093,0.882
		c0.111,0.283,0.35,0.667,0.714,1.15c0.667-0.227,1.143-0.463,1.429-0.709c0.285-0.246,0.459-0.552,0.519-0.918
		c0.06-0.362-0.012-0.676-0.214-0.94s-0.507-0.431-0.916-0.498c-0.439-0.072-0.804-0.017-1.093,0.165S165.431,43.789,165.365,44.186
		z"/>
	<path fill="#B784E1" d="M180.261,46.136c-1.035-0.289-1.941-0.186-2.721,0.311c-0.78,0.496-1.33,1.32-1.652,2.471
		c-0.329,1.178-0.304,2.17,0.075,2.978c0.378,0.808,1.089,1.357,2.131,1.648c0.692,0.193,1.353,0.283,1.981,0.268l-0.142,0.508
		c-0.6,0.04-1.307-0.055-2.123-0.283c-1.159-0.324-1.967-0.953-2.424-1.888c-0.456-0.935-0.497-2.074-0.122-3.417
		c0.234-0.839,0.6-1.534,1.097-2.084c0.496-0.551,1.092-0.917,1.785-1.099c0.693-0.181,1.436-0.162,2.226,0.059
		c0.805,0.225,1.483,0.577,2.035,1.056l-0.377,0.454C181.513,46.648,180.923,46.321,180.261,46.136z"/>
	<path fill="#B784E1" d="M189.788,53.488c-0.472,1.275-1.164,2.165-2.076,2.671s-1.928,0.552-3.049,0.137
		c-1.118-0.414-1.857-1.109-2.221-2.087c-0.363-0.978-0.307-2.107,0.168-3.39c0.473-1.279,1.167-2.167,2.081-2.663
		c0.915-0.496,1.93-0.539,3.043-0.126c1.121,0.415,1.861,1.109,2.223,2.082C190.317,51.083,190.261,52.209,189.788,53.488z
		 M183.216,51.055c-0.426,1.15-0.498,2.135-0.218,2.953c0.28,0.818,0.9,1.405,1.86,1.76c0.967,0.358,1.821,0.32,2.563-0.114
		s1.327-1.231,1.757-2.393c0.429-1.157,0.502-2.14,0.219-2.946c-0.282-0.807-0.903-1.387-1.863-1.743
		c-0.956-0.354-1.809-0.315-2.558,0.116C184.227,49.12,183.64,49.909,183.216,51.055z"/>
	<path fill="#B784E1" d="M195.587,60.917l-0.546-0.258l-1.328-9.046l-0.042-0.02c-0.346,0.839-0.617,1.467-0.814,1.883l-2.379,5.02
		l-0.52-0.246l3.669-7.741l0.54,0.256l1.328,9.033l0.031,0.015c0.27-0.65,0.54-1.262,0.811-1.833l2.395-5.051l0.523,0.248
		L195.587,60.917z"/>
	<path fill="#B784E1" d="M202.781,62.416c-0.354,0.622-0.862,0.984-1.525,1.087s-1.374-0.06-2.131-0.491
		c-0.91-0.518-1.551-1.015-1.922-1.491l0.295-0.52c0.407,0.533,1.026,1.035,1.858,1.508c0.611,0.348,1.176,0.483,1.693,0.407
		c0.518-0.077,0.905-0.342,1.164-0.797c0.161-0.282,0.234-0.549,0.221-0.802c-0.014-0.252-0.111-0.532-0.293-0.837
		c-0.181-0.305-0.481-0.694-0.9-1.166c-0.612-0.694-0.977-1.275-1.094-1.745c-0.118-0.469-0.032-0.957,0.255-1.462
		c0.317-0.557,0.793-0.887,1.43-0.99c0.636-0.103,1.297,0.04,1.983,0.43c0.699,0.398,1.281,0.904,1.745,1.519l-0.443,0.341
		c-0.472-0.609-0.989-1.075-1.553-1.395c-0.55-0.313-1.061-0.435-1.531-0.365c-0.471,0.069-0.831,0.323-1.08,0.761
		c-0.156,0.275-0.234,0.529-0.234,0.763c-0.001,0.234,0.073,0.486,0.221,0.756c0.146,0.271,0.441,0.662,0.883,1.173
		c0.467,0.531,0.792,0.973,0.978,1.328c0.185,0.355,0.276,0.69,0.274,1.005C203.071,61.749,202.975,62.076,202.781,62.416z"/>
	<path fill="#B784E1" d="M203.139,65.271l4.579-7.239l0.506,0.319l-4.58,7.239L203.139,65.271z"/>
	<path fill="#B784E1" d="M210.745,67.75c-0.41,0.586-0.95,0.899-1.62,0.94s-1.362-0.188-2.075-0.688
		c-0.857-0.6-1.449-1.155-1.774-1.664l0.343-0.49c0.355,0.568,0.925,1.127,1.709,1.676c0.576,0.403,1.125,0.591,1.647,0.563
		c0.522-0.027,0.934-0.255,1.234-0.685c0.186-0.265,0.283-0.524,0.294-0.777c0.01-0.253-0.061-0.54-0.213-0.861
		c-0.152-0.321-0.414-0.736-0.787-1.245c-0.545-0.749-0.854-1.361-0.927-1.839s0.058-0.955,0.392-1.432
		c0.367-0.525,0.873-0.809,1.516-0.852s1.288,0.161,1.935,0.614c0.659,0.462,1.19,1.02,1.595,1.675l-0.473,0.298
		c-0.413-0.651-0.884-1.163-1.415-1.534c-0.519-0.363-1.016-0.532-1.49-0.507c-0.476,0.025-0.857,0.244-1.146,0.657
		c-0.182,0.259-0.283,0.505-0.306,0.737s0.027,0.49,0.148,0.773c0.122,0.283,0.378,0.7,0.77,1.25
		c0.415,0.572,0.698,1.043,0.85,1.413c0.15,0.37,0.21,0.712,0.179,1.026C211.097,67.113,210.97,67.43,210.745,67.75z"/>
	<path fill="#B784E1" d="M212.563,71.982l-0.472-0.376l4.992-6.256l-2.176-1.736l0.351-0.44l4.823,3.849l-0.352,0.439l-2.175-1.736
		L212.563,71.982z"/>
	<path fill="#B784E1" d="M219.055,77.625l-3.469-3.145l5.754-6.347l3.469,3.145l-0.37,0.408l-3.026-2.743l-2.176,2.4l2.856,2.59
		l-0.37,0.408l-2.856-2.589l-2.468,2.722l3.026,2.743L219.055,77.625z"/>
	<path fill="#B784E1" d="M224.636,83.371l-0.416-0.438l2.017-8.917l-0.032-0.034c-0.625,0.658-1.104,1.146-1.438,1.464l-4.025,3.827
		l-0.396-0.417l6.209-5.902l0.411,0.433l-2.012,8.905l0.024,0.026c0.485-0.51,0.957-0.983,1.416-1.419l4.052-3.851l0.399,0.42
		L224.636,83.371z"/>
	<path fill="#B784E1" d="M227.547,86.855l-0.382-0.466l6.188-5.076l-1.765-2.152l0.435-0.357l3.913,4.771l-0.435,0.357l-1.766-2.152
		L227.547,86.855z"/>
</g>
<g>
	<circle fill="none" cx="150" cy="150" r="100"/>
	<path fill="#B784E1" d="M212.629,238.189c0.868-0.633,1.35-1.408,1.445-2.327c0.094-0.919-0.21-1.862-0.913-2.829
		c-0.72-0.988-1.513-1.584-2.382-1.789c-0.867-0.203-1.739,0.012-2.614,0.648c-0.581,0.424-1.062,0.886-1.439,1.389l-0.311-0.428
		c0.341-0.494,0.854-0.99,1.54-1.488c0.973-0.708,1.967-0.951,2.984-0.729c1.016,0.221,1.934,0.896,2.754,2.023
		c0.513,0.705,0.831,1.423,0.955,2.154c0.123,0.73,0.041,1.425-0.247,2.081s-0.765,1.226-1.428,1.708
		c-0.676,0.492-1.372,0.806-2.091,0.941l-0.123-0.577C211.449,238.853,212.072,238.594,212.629,238.189z"/>
	<path fill="#B784E1" d="M200.949,241.104c-0.708-1.161-0.978-2.256-0.809-3.285c0.168-1.029,0.763-1.854,1.783-2.478
		c1.018-0.619,2.021-0.77,3.014-0.447c0.992,0.321,1.844,1.066,2.557,2.233c0.709,1.163,0.975,2.259,0.797,3.284
		s-0.773,1.848-1.787,2.466c-1.021,0.622-2.023,0.772-3.011,0.452S201.658,242.268,200.949,241.104z M206.932,237.456
		c-0.639-1.047-1.365-1.714-2.181-2.001c-0.815-0.288-1.661-0.165-2.534,0.367c-0.881,0.537-1.381,1.23-1.5,2.082
		c-0.12,0.85,0.143,1.805,0.787,2.861c0.643,1.055,1.367,1.721,2.176,1.998c0.808,0.279,1.648,0.151,2.522-0.381
		c0.87-0.531,1.369-1.224,1.495-2.078C207.824,239.449,207.568,238.5,206.932,237.456z"/>
	<path fill="#B784E1" d="M191.551,241.039l0.541-0.268l7.923,4.562l0.042-0.021c-0.444-0.791-0.769-1.394-0.974-1.807l-2.466-4.977
		l0.514-0.256l3.805,7.676l-0.536,0.266l-7.913-4.554l-0.031,0.016c0.344,0.614,0.656,1.205,0.938,1.772l2.48,5.008l-0.52,0.258
		L191.551,241.039z"/>
	<path fill="#B784E1" d="M189.094,250.873c0.998-0.399,1.655-1.033,1.973-1.9c0.318-0.867,0.255-1.856-0.189-2.967
		c-0.454-1.135-1.076-1.908-1.868-2.318c-0.792-0.412-1.689-0.416-2.694-0.015c-0.667,0.267-1.246,0.598-1.736,0.991l-0.195-0.489
		c0.451-0.396,1.07-0.751,1.857-1.065c1.117-0.447,2.142-0.438,3.072,0.027s1.654,1.344,2.173,2.639
		c0.323,0.809,0.456,1.583,0.396,2.322c-0.06,0.739-0.31,1.392-0.75,1.957c-0.441,0.565-1.042,1-1.804,1.305
		c-0.776,0.311-1.528,0.443-2.258,0.398l0.022-0.59C187.789,251.227,188.456,251.128,189.094,250.873z"/>
	<path fill="#B784E1" d="M178.174,246.012l4.457-1.434l2.622,8.156l-4.457,1.433l-0.169-0.524l3.889-1.25l-0.992-3.084l-3.67,1.18
		l-0.168-0.525l3.67-1.18l-1.125-3.497l-3.888,1.249L178.174,246.012z"/>
	<path fill="#B784E1" d="M172.902,253.666c-0.199-0.805-0.08-1.488,0.359-2.052c0.439-0.564,1.16-0.971,2.16-1.22l1.285-0.319
		l-0.854-3.435l0.58-0.145l2.066,8.314l-2.035,0.506C174.485,255.809,173.298,255.258,172.902,253.666z M176.832,250.576
		l-1.144,0.283c-0.937,0.233-1.575,0.557-1.915,0.969s-0.424,0.966-0.252,1.659c0.16,0.641,0.475,1.066,0.945,1.278
		c0.472,0.211,1.121,0.213,1.947,0.008l1.376-0.342L176.832,250.576z"/>
	<path fill="#B784E1" d="M167.52,248.471l0.594-0.107l1.417,7.878l2.739-0.493l0.1,0.555l-6.072,1.092l-0.1-0.554l2.739-0.493
		L167.52,248.471z"/>
	<path fill="#B784E1" d="M161.285,251.619c0.039,0.538-0.069,1.006-0.327,1.406c-0.259,0.398-0.763,0.838-1.515,1.317l0.475,0.446
		c0.277,0.258,0.488,0.514,0.633,0.77s0.229,0.527,0.25,0.815c0.041,0.558-0.111,1.013-0.459,1.368s-0.835,0.557-1.462,0.604
		c-0.604,0.045-1.094-0.077-1.47-0.366c-0.377-0.289-0.586-0.712-0.627-1.27c-0.031-0.409,0.078-0.794,0.324-1.155
		c0.248-0.361,0.712-0.777,1.394-1.247l-2.841-2.473c-0.217,0.298-0.396,0.619-0.539,0.963s-0.26,0.746-0.351,1.208l-0.562,0.041
		c0.174-0.977,0.52-1.836,1.035-2.58l-1.672-1.449l0.789-0.06l1.215,1.067c0.332-0.378,0.632-0.658,0.9-0.841
		c0.268-0.183,0.565-0.329,0.893-0.44c0.326-0.109,0.702-0.182,1.127-0.213c0.814-0.061,1.469,0.092,1.965,0.458
		C160.955,250.355,161.23,250.898,161.285,251.619z M158.494,250.061c-0.498,0.037-0.949,0.156-1.352,0.355
		c-0.402,0.201-0.789,0.518-1.16,0.948l3.035,2.622c0.509-0.32,0.873-0.587,1.094-0.801c0.222-0.215,0.377-0.441,0.467-0.679
		s0.123-0.511,0.101-0.818c-0.042-0.558-0.256-0.979-0.642-1.269C159.651,250.132,159.137,250.012,158.494,250.061z
		 M160.176,256.433c-0.023-0.308-0.122-0.587-0.297-0.835c-0.176-0.25-0.497-0.566-0.965-0.951c-0.595,0.378-1.002,0.72-1.222,1.025
		c-0.22,0.307-0.315,0.645-0.288,1.016c0.027,0.365,0.17,0.654,0.429,0.863c0.259,0.21,0.595,0.299,1.007,0.269
		c0.444-0.033,0.785-0.173,1.023-0.417C160.102,257.156,160.206,256.834,160.176,256.433z"/>
	<path fill="#B784E1" d="M144.405,252.092c0.02-0.714,0.299-1.272,0.835-1.676c0.537-0.402,1.241-0.592,2.112-0.568
		c1.046,0.029,1.846,0.168,2.397,0.414l-0.017,0.598c-0.61-0.279-1.393-0.433-2.349-0.459c-0.703-0.02-1.265,0.125-1.686,0.436
		c-0.422,0.311-0.64,0.728-0.654,1.251c-0.009,0.324,0.052,0.595,0.183,0.812s0.348,0.417,0.651,0.602
		c0.304,0.184,0.751,0.387,1.343,0.605c0.866,0.326,1.461,0.668,1.785,1.027c0.324,0.357,0.479,0.828,0.462,1.41
		c-0.019,0.641-0.283,1.156-0.797,1.546c-0.513,0.39-1.164,0.573-1.953,0.552c-0.804-0.023-1.556-0.196-2.253-0.521l0.23-0.509
		c0.702,0.316,1.378,0.483,2.026,0.502c0.632,0.018,1.14-0.115,1.523-0.396c0.383-0.283,0.581-0.676,0.596-1.18
		c0.009-0.316-0.042-0.578-0.151-0.783c-0.109-0.207-0.292-0.395-0.55-0.564c-0.257-0.169-0.7-0.376-1.33-0.62
		c-0.662-0.249-1.157-0.487-1.487-0.713c-0.329-0.227-0.567-0.479-0.714-0.759S144.395,252.482,144.405,252.092z"/>
	<path fill="#B784E1" d="M140.56,249.561l0.602,0.055l-0.723,7.971l2.772,0.252l-0.051,0.561l-6.146-0.558l0.051-0.56l2.772,0.25
		L140.56,249.561z"/>
	<path fill="#B784E1" d="M135.499,252.741l0.579-3.687l0.591,0.092l-1.33,8.463l-2.015-0.316c-1.05-0.165-1.795-0.48-2.235-0.947
		s-0.6-1.09-0.478-1.869c0.09-0.568,0.314-1.023,0.675-1.365c0.36-0.344,0.858-0.551,1.495-0.625l-1.692-4.217l0.706,0.111
		l1.603,4.03L135.499,252.741z M135.419,253.251l-1.615-0.254c-0.714-0.112-1.292-0.04-1.736,0.216
		c-0.443,0.257-0.714,0.695-0.812,1.316c-0.102,0.645,0.018,1.145,0.357,1.498s0.945,0.6,1.817,0.736l1.401,0.221L135.419,253.251z"
		/>
	<path fill="#B784E1" d="M125.062,250l3.392,0.781l1.844-2.678l0.646,0.149l-5.29,7.607l-0.371-0.086l-1.355-9.14l0.656,0.151
		L125.062,250z M128.12,251.258l-2.985-0.688l0.442,3.271c0.04,0.258,0.079,0.612,0.115,1.062c0.188-0.342,0.376-0.647,0.566-0.915
		L128.12,251.258z"/>
	<path fill="#B784E1" d="M120.766,245.659l0.577,0.175l-2.313,7.662l2.665,0.805l-0.163,0.538l-5.906-1.784l0.162-0.537l2.665,0.804
		L120.766,245.659z"/>
	<path fill="#B784E1" d="M112.64,242.824l4.387,1.635l-2.993,8.027l-4.387-1.637l0.192-0.516l3.827,1.428l1.132-3.037l-3.612-1.347
		l0.192-0.517l3.612,1.348l1.284-3.442l-3.827-1.427L112.64,242.824z"/>
	<path fill="#B784E1" d="M106.108,244.662l-2.868-1.324l1.639-3.549c0.898,0.028,1.818,0.26,2.758,0.693
		c1.228,0.566,2.009,1.348,2.343,2.343s0.208,2.128-0.378,3.397c-0.365,0.791-0.851,1.418-1.458,1.879
		c-0.606,0.463-1.289,0.721-2.048,0.775c-0.759,0.054-1.53-0.1-2.313-0.462c-0.848-0.392-1.537-0.898-2.066-1.521l0.444-0.389
		c0.529,0.623,1.156,1.102,1.88,1.436c1.024,0.474,1.983,0.532,2.877,0.177s1.588-1.071,2.084-2.146
		c0.541-1.17,0.661-2.182,0.363-3.036c-0.299-0.854-1.001-1.536-2.107-2.048c-0.717-0.33-1.372-0.51-1.965-0.539l-1.263,2.735
		l2.314,1.067L106.108,244.662z"/>
	<path fill="#B784E1" d="M99.678,240.897l-4.466,2.884l-0.563-0.313l5.044-3.212l1.605-2.896l0.538,0.298l-1.583,2.854l-0.065,6.027
		l-0.6-0.333L99.678,240.897z"/>
</g>
</svg>
