<?xml version="1.0" encoding="utf-8"?>
<!-- Generator: Adobe Illustrator 17.0.0, SVG Export Plug-In . SVG Version: 6.00 Build 0)  -->
<!DOCTYPE svg PUBLIC "-//W3C//DTD SVG 1.1//EN" "http://www.w3.org/Graphics/SVG/1.1/DTD/svg11.dtd">
<svg version="1.1" id="Capa_1" xmlns="http://www.w3.org/2000/svg" xmlns:xlink="http://www.w3.org/1999/xlink" x="0px" y="0px"
	 width="300px" height="300px" viewBox="0 0 300 300" enable-background="new 0 0 300 300" xml:space="preserve">
<path fill="#50BED4" d="M151.391,293.736c-7.552,0-14.727-1.741-20.203-4.902l-89.115-51.449
	c-11.326-6.542-20.201-21.912-20.201-34.992v-102.9c0-13.08,8.876-28.451,20.201-34.991l89.115-51.452
	c5.476-3.16,12.651-4.902,20.203-4.902s14.727,1.741,20.203,4.902l89.112,51.45c11.328,6.542,20.201,21.913,20.201,34.992v102.9
	c0,13.079-8.874,28.45-20.201,34.991l-89.112,51.45C166.118,291.995,158.943,293.736,151.391,293.736z M151.391,20.35
	c-5.367,0-10.506,1.191-14.103,3.267L48.175,75.069c-7.512,4.336-14.101,15.75-14.101,24.424v102.9
	c0,8.673,6.589,20.087,14.101,24.425l89.113,51.449c3.597,2.076,8.736,3.267,14.103,3.267c5.365,0,10.506-1.191,14.103-3.267
	l89.112-51.45c7.51-4.337,14.099-15.751,14.099-24.424v-102.9c0-8.674-6.589-20.088-14.099-24.425l-89.112-51.45
	C161.897,21.541,156.756,20.35,151.391,20.35z"/>
<path fill="none" stroke="#50BED4" stroke-miterlimit="10" d="M232.391,196.116c-4.265,9.063-13.774,13.823-21.997,18.748
	c-9.226,5.526-18.736,10.554-28.095,15.846c-8.899,5.032-17.57,12.094-27.957,13.528c-10.795,1.491-19.238-3.877-28.315-8.865
	c-11.339-6.231-22.524-12.744-33.5-19.595"/>
<path fill="none" stroke="#50BED4" stroke-miterlimit="10" d="M64.3,172.609c1.2-20.109-1.8-40.109,0.2-60.109c0-2,1-5,2-7
	c11-19,33-23,51-35c13-9,27-18,42-14c15,9,30,18,46,26c9,6,20,9,26,19c8,14,3,30,4.202,45.331"/>
<g enable-background="new    ">
	<path fill="#232E5F" d="M81.106,113.868l5.075-0.766l12.03,34.829l-4.588,0.691l-2.914-8.946l-13.766,2.076l-2.834,9.813
		l-4.89,0.737L81.106,113.868z M89.58,136.269l-5.11-15.815l-0.713-2.685l-5.741,20.243L89.58,136.269z"/>
	<path fill="#232E5F" d="M111.505,133.603c-2.039,0.308-3.495,0.448-4.368,0.422l0.3,12.517l-4.589,0.691l-0.931-36.503l2.689-0.405
		l6.836-1.03c6.969-1.051,10.951,1.422,11.951,7.417c0.021,0.14,0.041,0.278,0.063,0.417c0.647,4.296-0.13,7.944-2.332,10.947
		C118.898,131.128,115.692,132.971,111.505,133.603z M118.758,117.564c-0.596-3.947-3.118-5.586-7.567-4.915
		c-1.329,0.2-2.857,0.599-4.584,1.195l0.435,16.401c0.971,0.044,2.282-0.061,3.936-0.31
		C117.265,128.988,119.858,124.865,118.758,117.564z"/>
	<path fill="#232E5F" d="M138.853,129.479c-2.04,0.308-3.496,0.448-4.369,0.422l0.299,12.517l-4.588,0.692l-0.93-36.503l2.688-0.405
		l6.837-1.031c6.968-1.051,10.951,1.422,11.95,7.418c0.021,0.14,0.042,0.278,0.063,0.417c0.648,4.296-0.129,7.943-2.33,10.946
		C146.245,127.005,143.038,128.848,138.853,129.479z M146.104,113.44c-0.595-3.947-3.117-5.585-7.567-4.914
		c-1.328,0.2-2.856,0.599-4.583,1.194l0.435,16.402c0.971,0.043,2.282-0.061,3.936-0.31
		C144.611,124.865,147.204,120.741,146.104,113.44z"/>
	<path fill="#232E5F" d="M156.069,133.317c0.965,0.741,2.733,1.151,5.305,1.229c0.794,0.021,1.604-0.031,2.43-0.155
		c0.827-0.125,1.666-0.346,2.52-0.662s1.596-0.732,2.229-1.251c1.387-1.178,1.94-2.691,1.661-4.541
		c-0.205-1.36-0.646-2.404-1.325-3.13c-1.154-1.265-2.749-2.361-4.785-3.288c-2.462-1.13-4.204-2.156-5.229-3.081
		c-2.079-1.844-3.302-3.98-3.668-6.411c-0.418-2.767,0.245-5.133,1.986-7.101c1.713-1.946,4.185-3.163,7.414-3.649
		c3.521-0.531,6.271-0.274,8.246,0.771l-0.922,3.795c-1.519-1.166-3.684-1.537-6.496-1.113c-1.73,0.262-2.984,0.689-3.765,1.283
		c-0.778,0.596-1.331,1.229-1.656,1.902c-0.389,0.778-0.509,1.656-0.361,2.635c0.147,0.979,0.356,1.763,0.628,2.356
		c0.271,0.592,0.676,1.152,1.213,1.681c0.858,0.871,2.452,1.851,4.781,2.938c2.379,1.11,4.068,2.091,5.064,2.941
		c2.013,1.714,3.188,3.693,3.527,5.94c0.47,3.118-0.307,5.722-2.331,7.809c-1.93,1.979-4.732,3.246-8.409,3.801
		c-2.72,0.41-5.208,0.303-7.467-0.32c-0.594-0.163-1.03-0.334-1.311-0.514L156.069,133.317z"/>
	<path fill="#50BED4" d="M213.016,129.009c-2.095,1.406-4.672,2.34-7.731,2.802c-5.701,0.859-9.802-0.141-12.303-2.998
		c-0.898-1.032-1.451-2.238-1.66-3.62c-0.208-1.381-0.173-2.562,0.105-3.543c0.279-0.981,0.709-1.902,1.291-2.763
		c0.97-1.425,2.558-2.998,4.763-4.72c-1.815-2.717-2.903-5.263-3.262-7.641c-0.413-2.742,0.147-5.15,1.684-7.227
		c1.538-2.06,3.698-3.299,6.479-3.719c2.518-0.38,4.684,0.101,6.497,1.439c1.617,1.183,2.554,2.631,2.813,4.344
		c0.394,2.609-0.412,5.072-2.418,7.391c-1.089,1.266-2.257,2.372-3.505,3.32l-3.046,2.273c3.434,4.33,6.804,7.608,10.11,9.834
		c1.311-1.892,1.766-4.161,1.367-6.809c-0.165-1.095-0.496-2.134-0.991-3.116c-1.081,0.271-1.829,0.548-2.245,0.828l-0.261-3.297
		c0.455-0.65,1.609-1.114,3.464-1.394l6.651-1.003l0.306,3.438l-3.523,0.531c0.297,0.714,0.504,1.456,0.621,2.229
		c0.623,4.139-0.063,7.599-2.062,10.38c1.467,0.509,3.213,0.611,5.236,0.306c0.186-0.028,0.371-0.056,0.557-0.084l0.603-0.091
		l-0.077,2.793c-1.003,0.366-2.138,0.646-3.405,0.837C216.926,130.055,214.907,129.813,213.016,129.009z M199.58,117.084
		c-2.735,2.404-3.926,4.775-3.573,7.111c0.305,2.026,1.43,3.408,3.374,4.142c1.575,0.603,3.515,0.729,5.816,0.381
		c1.746-0.263,3.277-0.852,4.593-1.766c-2.982-2.069-5.674-4.51-8.072-7.322L199.58,117.084z M200.715,111.724
		c2.463-1.8,4.076-3.149,4.841-4.048c1.514-1.81,2.146-3.532,1.899-5.169c-0.313-2.071-1.299-3.322-2.959-3.747
		c-0.544-0.147-1.19-0.166-1.94-0.053c-0.748,0.113-1.422,0.391-2.019,0.835c-0.597,0.442-1.075,0.991-1.435,1.645
		c-0.744,1.355-1.002,2.784-0.775,4.285C198.689,107.875,199.485,109.959,200.715,111.724z"/>
	<path fill="#232E5F" d="M54.607,176.113l4.589-0.692l7.085,24.98l1.5,4.917l0.659-5.22l4.866-21.638l-1.317-4.969l4.403-0.664
		l6.532,25.087l1.102,4.953l0.961-5.265l5.819-26.949l4.636-0.699l-9.175,38.027l-4.682,0.706l-5.229-19.595l-0.926-3.938
		l-0.674,4.179l-4.643,21.083l-4.728,0.713L54.607,176.113z"/>
	<path fill="#232E5F" d="M99.799,169.299l17.775-2.681l0.372,3.57l-13.465,2.03l0.317,12.633l10.15-1.53l0.264,3.635l-10.267,1.548
		l0.239,12.904l16.223-2.445l0.224,3.688l-20.903,3.151L99.799,169.299z"/>
	<path fill="#232E5F" d="M135.144,200.612l-5.91,0.892l-2.131,0.321l-0.931-36.504l2.341-0.353c1.081-0.163,2.167-0.327,3.256-0.491
		c1.09-0.164,2.438-0.367,4.044-0.609c1.607-0.242,3.107-0.249,4.501-0.021c1.393,0.229,2.537,0.635,3.431,1.222
		c1.68,1.078,2.69,2.749,3.032,5.017c0.531,3.522-0.44,6.402-2.916,8.64c-0.795,0.699-1.699,1.306-2.713,1.818
		c1.986-0.033,3.709,0.489,5.167,1.569c1.565,1.157,2.499,2.743,2.803,4.757c0.304,2.012,0.189,3.794-0.343,5.346
		c-0.532,1.553-1.433,2.893-2.7,4.024C143.685,198.416,140.041,199.874,135.144,200.612z M132.706,180.358l2.41-0.363
		c2.41-0.363,4.273-1.314,5.59-2.855c1.384-1.614,1.895-3.624,1.531-6.029c-0.391-2.593-1.884-4.006-4.479-4.237
		c-0.898-0.089-1.698-0.079-2.401,0.027c-0.703,0.105-1.205,0.182-1.506,0.227c-0.302,0.046-0.638,0.097-1.009,0.152
		c-0.834,0.126-1.507,0.275-2.018,0.449l0.352,12.861C131.64,180.52,132.149,180.442,132.706,180.358z M135.672,197.357
		c6.535-0.986,9.422-4.003,8.661-9.053c-0.618-4.097-3.398-5.772-8.343-5.027c-1.499,0.226-3.083,0.465-4.751,0.717l0.334,13.537
		C132.359,197.708,133.726,197.65,135.672,197.357z"/>
	<path fill="#232E5F" d="M154.368,191.823c0.965,0.741,2.733,1.151,5.305,1.229c0.793,0.021,1.603-0.031,2.43-0.155
		c0.826-0.125,1.666-0.346,2.52-0.662c0.853-0.316,1.596-0.731,2.229-1.25c1.387-1.178,1.941-2.691,1.662-4.542
		c-0.205-1.36-0.647-2.403-1.325-3.13c-1.154-1.265-2.75-2.361-4.786-3.289c-2.462-1.13-4.204-2.155-5.229-3.08
		c-2.079-1.843-3.303-3.98-3.669-6.411c-0.417-2.767,0.245-5.133,1.987-7.101c1.713-1.945,4.185-3.163,7.413-3.649
		c3.522-0.531,6.271-0.273,8.246,0.771l-0.921,3.797c-1.519-1.166-3.685-1.537-6.496-1.113c-1.73,0.261-2.985,0.689-3.766,1.282
		c-0.778,0.596-1.331,1.229-1.655,1.903c-0.389,0.778-0.509,1.656-0.361,2.634c0.147,0.979,0.356,1.764,0.628,2.357
		c0.271,0.591,0.675,1.151,1.213,1.681c0.857,0.87,2.452,1.85,4.78,2.937c2.38,1.11,4.068,2.091,5.065,2.941
		c2.013,1.714,3.188,3.694,3.526,5.941c0.471,3.117-0.307,5.72-2.33,7.807c-1.93,1.98-4.733,3.247-8.41,3.802
		c-2.72,0.409-5.208,0.304-7.467-0.319c-0.594-0.163-1.03-0.335-1.311-0.514L154.368,191.823z"/>
	<path fill="#232E5F" d="M179.498,157.281l4.588-0.692l0.931,36.504l-4.589,0.691L179.498,157.281z"/>
	<path fill="#232E5F" d="M198.939,157.952l-9.896,1.492l-0.021-3.6l24.195-3.648l0.044,3.596l-9.733,1.468l0.816,32.918l-4.59,0.692
		L198.939,157.952z"/>
	<path fill="#232E5F" d="M218.548,151.393l17.775-2.681l0.372,3.57l-13.465,2.03l0.317,12.633l10.15-1.53l0.264,3.635l-10.267,1.548
		l0.239,12.905l16.223-2.446l0.225,3.688l-20.904,3.152L218.548,151.393z"/>
	<path fill="#232E5F" d="M244.38,178.25c0.965,0.742,2.733,1.152,5.305,1.229c0.793,0.021,1.603-0.03,2.43-0.155
		c0.826-0.125,1.666-0.345,2.52-0.661c0.853-0.316,1.596-0.732,2.229-1.25c1.387-1.178,1.941-2.692,1.662-4.543
		c-0.205-1.36-0.647-2.403-1.325-3.13c-1.154-1.264-2.75-2.36-4.786-3.288c-2.462-1.13-4.204-2.155-5.229-3.081
		c-2.079-1.843-3.303-3.98-3.669-6.411c-0.417-2.767,0.245-5.133,1.987-7.1c1.713-1.945,4.185-3.163,7.413-3.65
		c3.522-0.531,6.271-0.273,8.246,0.771l-0.921,3.796c-1.519-1.166-3.685-1.536-6.496-1.112c-1.73,0.261-2.985,0.688-3.766,1.281
		c-0.778,0.596-1.331,1.229-1.655,1.904c-0.389,0.777-0.509,1.655-0.361,2.633c0.147,0.979,0.356,1.764,0.628,2.357
		c0.271,0.592,0.675,1.151,1.213,1.681c0.857,0.87,2.451,1.85,4.78,2.937c2.38,1.11,4.068,2.092,5.065,2.941
		c2.013,1.715,3.188,3.694,3.526,5.941c0.471,3.117-0.307,5.721-2.33,7.808c-1.93,1.979-4.733,3.246-8.41,3.801
		c-2.72,0.41-5.208,0.304-7.467-0.319c-0.594-0.163-1.03-0.335-1.311-0.514L244.38,178.25z"/>
</g>
<g>
	<line fill="none" x1="60.633" y1="97.333" x2="152.491" y2="40.893"/>
	<path fill="#232E5F" d="M80.141,85.348l-4.484-7.299l0.509-0.313l4.484,7.299L80.141,85.348z"/>
	<path fill="#232E5F" d="M88.023,80.504l-0.514,0.316l-8.305-3.824l-0.04,0.024c0.514,0.748,0.892,1.318,1.133,1.71l2.908,4.733
		l-0.489,0.301l-4.484-7.299l0.509-0.313l8.293,3.817l0.03-0.019c-0.398-0.581-0.763-1.141-1.094-1.68l-2.926-4.763l0.494-0.304
		L88.023,80.504z"/>
	<path fill="#232E5F" d="M92.005,78.058l-0.514,0.316l-4.19-6.819l-2.371,1.457l-0.294-0.479l5.257-3.23l0.294,0.479l-2.372,1.457
		L92.005,78.058z"/>
	<path fill="#232E5F" d="M96.333,65.344l2.902,4.723c0.515,0.838,0.675,1.644,0.479,2.415c-0.195,0.771-0.728,1.424-1.596,1.958
		c-0.845,0.52-1.651,0.688-2.417,0.505c-0.766-0.183-1.409-0.699-1.931-1.547l-2.89-4.703l0.514-0.316l2.902,4.723
		c0.432,0.702,0.962,1.129,1.592,1.281s1.301,0.009,2.013-0.429c0.696-0.427,1.117-0.951,1.263-1.57
		c0.147-0.62,0.01-1.271-0.409-1.953l-2.933-4.773L96.333,65.344z"/>
	<path fill="#232E5F" d="M102.812,71.418l-4.484-7.299l0.509-0.313l4.484,7.299L102.812,71.418z"/>
	<path fill="#232E5F" d="M107.29,68.666l-0.514,0.316l-4.19-6.819l-2.371,1.457l-0.295-0.48l5.257-3.23l0.294,0.479l-2.371,1.457
		L107.29,68.666z"/>
	<path fill="#232E5F" d="M110.742,66.545l-4.484-7.299l0.509-0.313l4.484,7.299L110.742,66.545z"/>
	<path fill="#232E5F" d="M113.157,55.007l0.554-0.34l1.753,8.977l-0.449,0.276l-7.205-5.627l0.544-0.334l4.889,3.839
		c0.74,0.577,1.273,1.024,1.601,1.341c-0.087-0.291-0.194-0.759-0.32-1.406L113.157,55.007z"/>
	<path fill="#232E5F" d="M123.209,58.885l-3.989,2.451l-4.484-7.299l3.989-2.451l0.289,0.469l-3.48,2.138l1.696,2.761l3.285-2.019
		l0.288,0.469l-3.285,2.019l1.923,3.13l3.479-2.138L123.209,58.885z"/>
</g>
<g>
	<line fill="none" x1="174.491" y1="57.893" x2="271.5" y2="110.5"/>
	<path d="M179.645,50.944l2.065,1.12c0.931,0.504,1.528,1.033,1.794,1.585c0.265,0.552,0.224,1.148-0.123,1.787
		c-0.236,0.436-0.566,0.727-0.989,0.873c-0.424,0.146-0.914,0.121-1.47-0.074l-0.018,0.031c0.553,0.415,0.893,0.845,1.018,1.289
		c0.126,0.444,0.049,0.925-0.232,1.443c-0.376,0.693-0.896,1.103-1.559,1.228c-0.663,0.125-1.417-0.042-2.262-0.5l-2.308-1.251
		L179.645,50.944z M178.101,55.045l-1.763,3.25l1.772,0.961c1.394,0.756,2.398,0.567,3.013-0.566
		c0.561-1.033,0.105-1.949-1.364-2.746L178.101,55.045z M178.352,54.582l1.659,0.899c0.707,0.383,1.285,0.544,1.733,0.483
		c0.449-0.061,0.81-0.342,1.081-0.844c0.271-0.501,0.288-0.963,0.049-1.386s-0.718-0.83-1.436-1.219l-1.52-0.824L178.352,54.582z"/>
	<path d="M186.285,64.289l-4.115-2.232l4.083-7.53l4.116,2.231l-0.263,0.484l-3.591-1.947l-1.544,2.848l3.389,1.838l-0.262,0.484
		l-3.39-1.838l-1.751,3.229l3.59,1.947L186.285,64.289z"/>
	<path d="M193.072,64.53l-3.06-1.659l-2.492,2.088l-0.582-0.315l7.129-5.919l0.335,0.182l-1.134,9.17l-0.592-0.321L193.072,64.53z
		 M190.46,62.5l2.694,1.461l0.446-3.27c0.03-0.26,0.087-0.611,0.172-1.054c-0.271,0.279-0.535,0.523-0.79,0.731L190.46,62.5z"/>
	<path d="M203.945,64.121l-2.642,4.873c-0.47,0.865-1.087,1.406-1.853,1.622c-0.767,0.215-1.597,0.081-2.493-0.406
		c-0.872-0.473-1.421-1.087-1.645-1.841c-0.224-0.755-0.099-1.57,0.376-2.445l2.632-4.852l0.53,0.288l-2.643,4.873
		c-0.393,0.725-0.498,1.397-0.314,2.019c0.183,0.621,0.642,1.131,1.377,1.53c0.717,0.389,1.381,0.492,1.991,0.31
		c0.609-0.183,1.105-0.626,1.487-1.33l2.67-4.924L203.945,64.121z"/>
	<path d="M203.879,73.83l-0.53-0.288l3.815-7.036l-2.446-1.327l0.268-0.495l5.424,2.941l-0.268,0.494l-2.447-1.327L203.879,73.83z"
		/>
	<path d="M207.444,75.763l4.083-7.53l0.525,0.285l-4.083,7.531L207.444,75.763z"/>
	<path d="M210.629,77.491l-0.525-0.285l4.083-7.53l4.126,2.237l-0.263,0.484l-3.6-1.953l-1.732,3.193l3.399,1.844l-0.265,0.489
		l-3.399-1.844L210.629,77.491z"/>
	<path d="M225.029,75.554l-2.642,4.873c-0.47,0.866-1.087,1.406-1.853,1.622c-0.767,0.215-1.597,0.081-2.493-0.406
		c-0.872-0.473-1.421-1.087-1.645-1.841c-0.224-0.755-0.099-1.57,0.376-2.445l2.632-4.852l0.53,0.288l-2.643,4.873
		c-0.393,0.725-0.498,1.397-0.314,2.019c0.183,0.621,0.642,1.131,1.377,1.529c0.717,0.389,1.381,0.493,1.991,0.311
		c0.609-0.183,1.105-0.626,1.487-1.33l2.67-4.924L225.029,75.554z"/>
	<path d="M222.99,84.193l4.083-7.53l0.525,0.285l-3.815,7.036l3.591,1.947l-0.269,0.495L222.99,84.193z"/>
</g>
<g>
	<line fill="none" x1="139" y1="52.5" x2="158.5" y2="52.5"/>
	<path d="M146.758,50.326c0-0.539,0.144-0.998,0.431-1.377s0.823-0.779,1.608-1.201l-0.439-0.48
		c-0.258-0.277-0.449-0.549-0.574-0.814s-0.188-0.543-0.188-0.832c0-0.559,0.187-1.002,0.56-1.33s0.874-0.492,1.503-0.492
		c0.605,0,1.085,0.158,1.439,0.475s0.529,0.754,0.529,1.313c0,0.41-0.137,0.786-0.41,1.128s-0.767,0.722-1.482,1.14l2.648,2.678
		c0.238-0.281,0.441-0.588,0.609-0.92s0.314-0.725,0.439-1.178h0.563c-0.246,0.961-0.654,1.793-1.225,2.496l1.559,1.57h-0.791
		l-1.131-1.154c-0.359,0.352-0.68,0.608-0.961,0.771s-0.588,0.286-0.922,0.372c-0.334,0.086-0.714,0.129-1.14,0.129
		c-0.816,0-1.458-0.201-1.925-0.604S146.758,51.049,146.758,50.326z M149.424,52.09c0.5,0,0.958-0.085,1.375-0.255
		c0.416-0.17,0.824-0.456,1.227-0.858l-2.83-2.842c-0.531,0.281-0.915,0.521-1.151,0.718s-0.408,0.411-0.516,0.642
		s-0.161,0.5-0.161,0.809c0,0.559,0.182,0.996,0.545,1.313S148.78,52.09,149.424,52.09z M148.223,45.609
		c0,0.309,0.078,0.594,0.234,0.855s0.453,0.602,0.891,1.02c0.621-0.332,1.053-0.643,1.294-0.932c0.242-0.289,0.363-0.619,0.363-0.99
		c0-0.367-0.121-0.665-0.363-0.894s-0.57-0.343-0.984-0.343c-0.445,0-0.796,0.113-1.052,0.34S148.223,45.207,148.223,45.609z"/>
</g>
<g>
	<path fill="none" d="M230.391,202.116c-4.265,9.063-13.774,13.823-21.997,18.748c-9.226,5.526-18.736,10.554-28.095,15.846
		c-8.899,5.032-17.57,12.094-27.957,13.528c-10.795,1.491-19.238-3.877-28.315-8.865c-11.339-6.231-22.524-12.744-33.5-19.595"/>
	<path fill="#232E5F" d="M214.529,222.356c-0.75-1.227-0.996-2.351-0.737-3.372s1.012-1.913,2.258-2.676l1.75-1.07l4.47,7.308
		l-1.975,1.208c-1.166,0.713-2.24,0.951-3.221,0.713C216.093,224.229,215.244,223.525,214.529,222.356z M215.071,221.997
		c0.641,1.046,1.388,1.671,2.242,1.874c0.854,0.202,1.797-0.011,2.826-0.641l1.345-0.822l-3.92-6.408l-1.209,0.74
		C214.173,218.075,213.744,219.827,215.071,221.997z"/>
	<path fill="#232E5F" d="M206.561,221.955l4.022-2.396l4.384,7.359l-4.022,2.396l-0.282-0.473l3.509-2.09l-1.658-2.784l-3.313,1.973
		l-0.281-0.473l3.313-1.974l-1.88-3.156l-3.509,2.09L206.561,221.955z"/>
	<path fill="#232E5F" d="M201.909,227.202c-0.356-0.619-0.411-1.241-0.164-1.865c0.247-0.625,0.748-1.154,1.503-1.589
		c0.907-0.521,1.66-0.822,2.26-0.901l0.298,0.518c-0.666,0.081-1.413,0.36-2.242,0.838c-0.609,0.351-1.013,0.769-1.209,1.254
		c-0.196,0.484-0.164,0.954,0.097,1.407c0.162,0.281,0.355,0.479,0.58,0.597c0.225,0.116,0.515,0.173,0.869,0.172
		c0.355-0.002,0.843-0.063,1.462-0.186c0.908-0.176,1.595-0.195,2.059-0.06c0.464,0.137,0.841,0.457,1.131,0.962
		c0.32,0.555,0.363,1.133,0.13,1.733c-0.233,0.602-0.692,1.099-1.376,1.492c-0.697,0.401-1.429,0.646-2.193,0.734l-0.069-0.555
		c0.765-0.098,1.428-0.308,1.989-0.631c0.549-0.316,0.912-0.694,1.091-1.135s0.143-0.88-0.108-1.317
		c-0.158-0.273-0.337-0.471-0.538-0.589s-0.456-0.183-0.764-0.192c-0.308-0.011-0.794,0.045-1.459,0.167
		c-0.694,0.133-1.24,0.189-1.64,0.169c-0.399-0.02-0.734-0.111-1.006-0.272C202.338,227.791,202.104,227.541,201.909,227.202z"/>
	<path fill="#232E5F" d="M199.249,226.161l4.204,7.465l-0.521,0.293l-4.203-7.464L199.249,226.161z"/>
	<path fill="#232E5F" d="M195.782,233.044l-2.762,1.531l-1.896-3.418c0.554-0.709,1.283-1.314,2.188-1.816
		c1.183-0.655,2.273-0.824,3.274-0.506c1,0.318,1.84,1.089,2.518,2.313c0.423,0.762,0.642,1.523,0.655,2.286
		c0.015,0.763-0.181,1.466-0.585,2.11s-0.984,1.175-1.739,1.594c-0.816,0.453-1.632,0.709-2.448,0.769l-0.051-0.588
		c0.815-0.06,1.571-0.282,2.269-0.669c0.987-0.548,1.602-1.287,1.842-2.218c0.241-0.931,0.074-1.914-0.499-2.948
		c-0.626-1.128-1.371-1.823-2.236-2.087s-1.831-0.101-2.896,0.491c-0.69,0.382-1.223,0.805-1.596,1.267l1.461,2.634l2.229-1.236
		L195.782,233.044z"/>
	<path fill="#232E5F" d="M183.598,234.854l0.527-0.293l8.126,4.191l0.041-0.022c-0.48-0.771-0.832-1.356-1.056-1.76l-2.693-4.858
		l0.502-0.278l4.153,7.492l-0.522,0.29l-8.114-4.184l-0.031,0.017c0.372,0.599,0.711,1.174,1.018,1.728l2.711,4.889l-0.507,0.281
		L183.598,234.854z"/>
	<path fill="#232E5F" d="M172.815,241.254l0.417-0.26l5.091,4.615c0.42,0.379,0.755,0.694,1.005,0.948
		c-0.127-0.321-0.258-0.7-0.394-1.136c-0.135-0.436-0.794-2.685-1.977-6.748l0.428-0.267l6.528,6.026l-0.532,0.331l-4.191-3.892
		c-0.167-0.158-0.323-0.305-0.466-0.438c-0.144-0.134-0.276-0.261-0.399-0.38c-0.122-0.119-0.238-0.235-0.348-0.349
		c-0.11-0.113-0.218-0.229-0.324-0.348c0.202,0.501,0.459,1.291,0.772,2.37l1.504,5.186l-0.562,0.351l-4.61-4.155
		c-0.533-0.479-0.947-0.874-1.243-1.187c0.105,0.266,0.208,0.554,0.308,0.864c0.099,0.312,0.773,2.535,2.024,6.671l-0.512,0.318
		L172.815,241.254z"/>
	<path fill="#232E5F" d="M169.559,243.26l4.396,7.353l-0.513,0.307l-4.396-7.352L169.559,243.26z"/>
	<path fill="#232E5F" d="M165.075,245.807l0.533-0.283l3.762,7.064l2.457-1.309l0.265,0.497l-5.446,2.9l-0.265-0.497l2.457-1.309
		L165.075,245.807z"/>
	<path fill="#232E5F" d="M155.897,249.659l0.568-0.204l1.424,3.965l4.709-1.691l-1.424-3.965l0.563-0.202l2.896,8.062l-0.563,0.202
		l-1.285-3.578l-4.709,1.691l1.285,3.578l-0.568,0.204L155.897,249.659z"/>
	<path fill="#232E5F" d="M147.43,250.464l2.757,8.072l0.047,0.003c-0.006-0.485,0.006-0.982,0.033-1.489l0.352-6.412l0.573,0.031
		l-0.468,8.554l-0.924-0.051l-2.62-7.689l-0.035-0.002l-3.442,7.358l-0.901-0.05l0.468-8.553l0.603,0.032l-0.354,6.482
		c-0.025,0.453-0.074,0.92-0.147,1.4l0.047,0.003l3.631-7.712L147.43,250.464z"/>
	<path fill="#232E5F" d="M136.984,248.106l4.445,1.469l-2.689,8.134l-4.445-1.47l0.173-0.522l3.877,1.281l1.017-3.076l-3.661-1.21
		l0.173-0.523l3.661,1.211l1.153-3.488l-3.877-1.282L136.984,248.106z"/>
	<path fill="#232E5F" d="M130.423,248.326l3.128,1.526l2.4-2.192l0.595,0.29l-6.869,6.219l-0.342-0.167l0.739-9.21l0.605,0.296
		L130.423,248.326z M133.12,250.242l-2.754-1.344l-0.306,3.286c-0.019,0.261-0.061,0.614-0.126,1.06
		c0.259-0.29,0.512-0.545,0.758-0.765L133.12,250.242z"/>
	<path fill="#232E5F" d="M123.686,241.178l0.527,0.294l0.738,9.112l0.041,0.023c0.399-0.815,0.711-1.424,0.935-1.826l2.7-4.854
		l0.502,0.278l-4.164,7.487l-0.522-0.291l-0.738-9.1l-0.031-0.018c-0.311,0.632-0.621,1.225-0.928,1.777l-2.717,4.885l-0.507-0.281
		L123.686,241.178z"/>
	<path fill="#232E5F" d="M121.567,240.016l-4.156,7.49l-0.522-0.29l4.156-7.49L121.567,240.016z"/>
	<path fill="#232E5F" d="M113.517,235.495l0.525,0.297l0.677,9.118l0.041,0.022c0.405-0.812,0.721-1.419,0.947-1.82l2.732-4.836
		l0.5,0.282l-4.213,7.459l-0.521-0.294l-0.678-9.104l-0.031-0.018c-0.315,0.63-0.628,1.22-0.939,1.771l-2.75,4.867l-0.505-0.285
		L113.517,235.495z"/>
	<path fill="#232E5F" d="M106.35,236.344l-2.731-1.586l1.962-3.379c0.893,0.111,1.787,0.428,2.682,0.947
		c1.169,0.679,1.873,1.529,2.113,2.552s0.008,2.138-0.694,3.348c-0.438,0.753-0.98,1.331-1.627,1.734s-1.352,0.597-2.112,0.579
		c-0.76-0.017-1.514-0.242-2.26-0.676c-0.807-0.469-1.445-1.038-1.915-1.708l0.479-0.346c0.469,0.67,1.048,1.205,1.737,1.605
		c0.976,0.566,1.926,0.715,2.848,0.444c0.923-0.271,1.682-0.917,2.276-1.94c0.647-1.115,0.863-2.111,0.646-2.989
		c-0.217-0.879-0.853-1.624-1.907-2.235c-0.683-0.396-1.318-0.637-1.906-0.721l-1.513,2.604l2.204,1.279L106.35,236.344z"/>
</g>
<g>
	<line fill="none" x1="156" y1="222" x2="223" y2="211"/>
	<path fill="#FF1657" d="M171.52,210.77l0.897,5.47c0.103,0.625,0.053,1.195-0.149,1.711c-0.202,0.517-0.547,0.943-1.033,1.28
		c-0.487,0.337-1.091,0.565-1.813,0.684c-1.086,0.179-1.977,0.038-2.669-0.42s-1.118-1.171-1.278-2.139l-0.894-5.446l1.786-0.294
		l0.85,5.175c0.107,0.652,0.316,1.108,0.629,1.37c0.313,0.261,0.771,0.342,1.376,0.243c0.586-0.097,0.986-0.319,1.199-0.669
		c0.214-0.351,0.268-0.853,0.159-1.508l-0.848-5.163L171.52,210.77z"/>
	<path fill="#FF1657" d="M181.819,217.762l-2.047,0.336l-2.491-2.874l-1.44,3.52l-1.92,0.315l2.089-4.82l-3.298-3.662l1.978-0.325
		l2.321,2.742l1.287-3.334l1.931-0.317l-1.966,4.628L181.819,217.762z"/>
	<path fill="#50BED4" d="M187.059,213.267l-2.237,0.367l-0.208-1.267l2.238-0.367l-0.371-2.255l1.267-0.208l0.37,2.255l2.237-0.367
		l0.208,1.267l-2.237,0.367l0.365,2.226l-1.266,0.208L187.059,213.267z"/>
	<path fill="#FF1657" d="M201.295,205.882l0.898,5.47c0.102,0.625,0.052,1.195-0.15,1.711c-0.202,0.517-0.547,0.943-1.033,1.28
		c-0.487,0.338-1.091,0.565-1.812,0.684c-1.088,0.179-1.978,0.038-2.67-0.42c-0.693-0.458-1.119-1.171-1.277-2.139l-0.895-5.446
		l1.787-0.294l0.85,5.175c0.106,0.652,0.316,1.108,0.628,1.37c0.313,0.261,0.771,0.342,1.376,0.243
		c0.586-0.097,0.986-0.319,1.199-0.669c0.214-0.35,0.268-0.853,0.159-1.508l-0.848-5.163L201.295,205.882z"/>
	<path fill="#FF1657" d="M204.763,213.993l-1.388-8.453l1.793-0.294l1.388,8.453L204.763,213.993z"/>
</g>
<line fill="none" stroke="#50BED4" stroke-miterlimit="10" x1="140.5" y1="210" x2="255.5" y2="191.518"/>
</svg>
