<?xml version="1.0" encoding="utf-8"?>
<!-- Generator: Adobe Illustrator 17.0.0, SVG Export Plug-In . SVG Version: 6.00 Build 0)  -->
<!DOCTYPE svg PUBLIC "-//W3C//DTD SVG 1.1//EN" "http://www.w3.org/Graphics/SVG/1.1/DTD/svg11.dtd">
<svg version="1.1" id="Capa_1" xmlns="http://www.w3.org/2000/svg" xmlns:xlink="http://www.w3.org/1999/xlink" x="0px" y="0px"
	 width="150px" height="150px" viewBox="0 0 150 150" enable-background="new 0 0 150 150" xml:space="preserve">
<circle id="Big" fill="none" stroke="#F4D03F" stroke-miterlimit="10" cx="74.303" cy="75.303" r="69.219"/>
<g id="Small">
	<circle fill="none" cx="74.303" cy="75.303" r="63.739"/>
	
		<circle fill="none" stroke="#F4D03F" stroke-miterlimit="10" stroke-dasharray="9.8874,4.9437" cx="74.303" cy="75.303" r="63.739"/>
</g>
<g id="Pencil_x40_2x.png">
	<g>
		<path fill="none" stroke="#F4D03F" stroke-miterlimit="10" d="M96,42c-3.313,0-6.313,1.343-8.486,3.516l-40.498,40.5L42,108
			l21.984-5.014l40.5-40.5C106.657,60.315,108,57.313,108,54C108,47.373,102.627,42,96,42z M61.5,100.184L51,102.639V99h-3.639
			l2.455-10.5H61.5V100.184z M64.5,98.228V87c0-0.828-0.671-1.5-1.5-1.5H51.772l32.304-32.303l12.727,12.728L64.5,98.228z
			 M102.363,60.365l-3.44,3.439L86.197,51.076l3.44-3.44c0,0,2.448-2.637,6.363-2.637c4.972,0,9,4.03,9,9
			C105,56.486,103.992,58.736,102.363,60.365z"/>
	</g>
</g>
</svg>
