<?xml version="1.0" encoding="utf-8"?>
<!-- Generator: Adobe Illustrator 17.0.0, SVG Export Plug-In . SVG Version: 6.00 Build 0)  -->
<!DOCTYPE svg PUBLIC "-//W3C//DTD SVG 1.1//EN" "http://www.w3.org/Graphics/SVG/1.1/DTD/svg11.dtd">
<svg version="1.1" id="Capa_1" xmlns="http://www.w3.org/2000/svg" xmlns:xlink="http://www.w3.org/1999/xlink" x="0px" y="0px"
	 width="150px" height="150px" viewBox="0 0 150 150" enable-background="new 0 0 150 150" xml:space="preserve">
<circle id="Big" fill="none" stroke="#1F3A93" stroke-miterlimit="10" cx="74.303" cy="75.303" r="69.219"/>
<g id="Small">
	<circle fill="none" cx="74.303" cy="75.303" r="63.739"/>
	
		<circle fill="none" stroke="#1F3A93" stroke-miterlimit="10" stroke-dasharray="9.8874,4.9437" cx="74.303" cy="75.303" r="63.739"/>
</g>
<g id="Chat_Bubble_Dots_x40_2x.png">
	<g>
		<path fill="none" stroke="#1F3A93" stroke-miterlimit="10" d="M58.833,66.917c-2.677,0-4.85,2.172-4.85,4.85
			c0,2.679,2.172,4.85,4.85,4.85c2.678,0,4.85-2.171,4.85-4.85C63.683,69.089,61.511,66.917,58.833,66.917z M75,66.917
			c-2.678,0-4.85,2.172-4.85,4.85c0,2.679,2.172,4.85,4.85,4.85s4.85-2.171,4.85-4.85C79.85,69.089,77.678,66.917,75,66.917z
			 M75,42.667c-19.643,0-35.567,13.03-35.567,29.1c0,7.883,3.846,15.022,10.068,20.262L45.9,107.333l19.122-7.648
			c3.169,0.755,6.511,1.181,9.978,1.181c19.643,0,35.567-13.026,35.567-29.1C110.567,55.696,94.643,42.667,75,42.667z M75,97.633
			c-3.082,0-6.186-0.368-9.226-1.094c-0.248-0.058-0.5-0.088-0.752-0.088c-0.409,0-0.818,0.077-1.2,0.232l-13.35,5.339l2.176-9.253
			c0.281-1.187-0.133-2.428-1.064-3.213c-5.75-4.842-8.917-11.162-8.917-17.79C42.667,57.504,57.173,45.9,75,45.9
			c17.829,0,32.333,11.604,32.333,25.867C107.333,86.029,92.829,97.633,75,97.633z M91.167,66.917c-2.678,0-4.85,2.172-4.85,4.85
			c0,2.679,2.172,4.85,4.85,4.85s4.85-2.171,4.85-4.85C96.017,69.089,93.844,66.917,91.167,66.917z"/>
	</g>
</g>
</svg>
