<?xml version="1.0" encoding="utf-8"?>
<!-- Generator: Adobe Illustrator 17.0.0, SVG Export Plug-In . SVG Version: 6.00 Build 0)  -->
<!DOCTYPE svg PUBLIC "-//W3C//DTD SVG 1.1//EN" "http://www.w3.org/Graphics/SVG/1.1/DTD/svg11.dtd">
<svg version="1.1" id="Capa_1" xmlns="http://www.w3.org/2000/svg" xmlns:xlink="http://www.w3.org/1999/xlink" x="0px" y="0px"
	 width="150px" height="150px" viewBox="0 0 150 150" enable-background="new 0 0 150 150" xml:space="preserve">
<circle id="Big" fill="none" stroke="#D91E18" stroke-miterlimit="10" cx="74.303" cy="75.303" r="69.219"/>
<g id="Small">
	<circle fill="none" cx="74.303" cy="75.303" r="63.739"/>
	
		<circle fill="none" stroke="#D91E18" stroke-miterlimit="10" stroke-dasharray="9.8874,4.9437" cx="74.303" cy="75.303" r="63.739"/>
</g>
<g id="Browser">
	<g>
		<path fill="none" stroke="#D91E18" stroke-miterlimit="10" d="M48.985,47.455c-0.845,0-1.53,0.686-1.53,1.53
			c0,0.846,0.685,1.53,1.53,1.53c0.845,0,1.53-0.684,1.53-1.53C50.515,48.14,49.83,47.455,48.985,47.455z M55.106,47.455
			c-0.845,0-1.53,0.686-1.53,1.53c0,0.846,0.685,1.53,1.53,1.53c0.845,0,1.53-0.684,1.53-1.53
			C56.636,48.14,55.951,47.455,55.106,47.455z M101.015,47.455H67.349c-0.845,0-1.53,0.686-1.53,1.53c0,0.846,0.685,1.53,1.53,1.53
			h33.667c0.845,0,1.53-0.684,1.53-1.53C102.545,48.14,101.86,47.455,101.015,47.455z M102.545,41.333h-55.09
			c-3.38,0-6.121,2.741-6.121,6.121v55.091c0,3.38,2.741,6.121,6.121,6.121h55.091c3.38,0,6.121-2.741,6.121-6.121v-55.09
			C108.667,44.074,105.926,41.333,102.545,41.333z M105.606,102.545c0,1.69-1.37,3.061-3.061,3.061h-55.09
			c-1.69,0-3.061-1.37-3.061-3.061V56.636h61.212V102.545z M105.606,53.576H44.394v-6.121c0-1.69,1.37-3.061,3.061-3.061h55.091
			c1.69,0,3.061,1.37,3.061,3.061L105.606,53.576L105.606,53.576z M61.227,47.455c-0.845,0-1.53,0.686-1.53,1.53
			c0,0.846,0.685,1.53,1.53,1.53c0.845,0,1.53-0.684,1.53-1.53C62.758,48.14,62.072,47.455,61.227,47.455z"/>
	</g>
</g>
</svg>
