<?xml version="1.0" encoding="utf-8"?>
<!-- Generator: Adobe Illustrator 17.0.0, SVG Export Plug-In . SVG Version: 6.00 Build 0)  -->
<!DOCTYPE svg PUBLIC "-//W3C//DTD SVG 1.1//EN" "http://www.w3.org/Graphics/SVG/1.1/DTD/svg11.dtd">
<svg version="1.1" id="Capa_1" xmlns="http://www.w3.org/2000/svg" xmlns:xlink="http://www.w3.org/1999/xlink" x="0px" y="0px"
	 width="45px" height="45px" viewBox="0 0 45 45" enable-background="new 0 0 45 45" xml:space="preserve">
<path fill="#FFFFFF" d="M22.5,0C10.074,0,0,10.074,0,22.5S10.074,45,22.5,45S45,34.926,45,22.5S34.926,0,22.5,0z M35.862,35.862
	c-1.737,1.737-3.758,3.1-6.008,4.051c-0.572,0.242-1.152,0.454-1.74,0.637v-3.372c0-1.772-0.608-3.076-1.824-3.911
	c0.762-0.073,1.461-0.176,2.098-0.308s1.311-0.322,2.021-0.571s1.348-0.546,1.912-0.89s1.106-0.791,1.626-1.34
	s0.956-1.172,1.307-1.868s0.63-1.531,0.835-2.505s0.308-2.047,0.308-3.219c0-2.27-0.74-4.204-2.219-5.801
	c0.674-1.758,0.601-3.669-0.22-5.735l-0.549-0.066c-0.381-0.044-1.066,0.117-2.054,0.483s-2.098,0.967-3.329,1.802
	c-1.743-0.483-3.552-0.725-5.427-0.725c-1.89,0-3.691,0.242-5.405,0.725c-0.776-0.527-1.512-0.963-2.208-1.307
	s-1.252-0.579-1.67-0.703s-0.806-0.201-1.165-0.231s-0.59-0.037-0.692-0.022s-0.176,0.029-0.22,0.044
	c-0.82,2.08-0.894,3.992-0.22,5.735C9.54,18.362,8.8,20.295,8.8,22.566c0,1.172,0.103,2.245,0.308,3.219s0.483,1.809,0.835,2.505
	s0.787,1.318,1.307,1.868s1.062,0.996,1.626,1.34s1.201,0.641,1.912,0.89s1.384,0.439,2.021,0.571s1.337,0.234,2.098,0.308
	c-1.201,0.82-1.802,2.124-1.802,3.911v3.438c-0.663-0.197-1.317-0.431-1.96-0.703c-2.25-0.952-4.271-2.315-6.008-4.051
	s-3.1-3.758-4.051-6.008c-0.984-2.327-1.483-4.802-1.483-7.354s0.499-5.027,1.484-7.354c0.952-2.25,2.315-4.271,4.051-6.008
	s3.758-3.1,6.008-4.051c2.327-0.984,4.802-1.484,7.354-1.484s5.027,0.499,7.354,1.484c2.25,0.952,4.271,2.315,6.008,4.051
	s3.1,3.758,4.051,6.008c0.984,2.327,1.483,4.802,1.483,7.354s-0.499,5.027-1.484,7.354c-0.952,2.25-2.315,4.271-4.051,6.008
	L35.862,35.862z"/>
<g>
</g>
<g>
</g>
<g>
</g>
<g>
</g>
<g>
</g>
<g>
</g>
</svg>
