<?xml version="1.0" encoding="utf-8"?>
<!-- Generator: Adobe Illustrator 17.0.0, SVG Export Plug-In . SVG Version: 6.00 Build 0)  -->
<!DOCTYPE svg PUBLIC "-//W3C//DTD SVG 1.1//EN" "http://www.w3.org/Graphics/SVG/1.1/DTD/svg11.dtd">
<svg version="1.1" id="Capa_1" xmlns="http://www.w3.org/2000/svg" xmlns:xlink="http://www.w3.org/1999/xlink" x="0px" y="0px"
	 width="45px" height="45px" viewBox="0 0 45 45" enable-background="new 0 0 45 45" xml:space="preserve">
<path fill="#FFFFFF" d="M45,8.544c-1.656,0.734-3.435,1.231-5.302,1.454c1.906-1.143,3.37-2.952,4.059-5.108
	c-1.784,1.058-3.76,1.826-5.863,2.24c-1.684-1.794-4.083-2.915-6.739-2.915c-5.099,0-9.232,4.133-9.232,9.232
	c0,0.724,0.082,1.428,0.239,2.104C14.489,15.166,7.686,11.49,3.133,5.905c-0.795,1.364-1.25,2.949-1.25,4.641
	c0,3.203,1.63,6.029,4.107,7.685c-1.513-0.048-2.937-0.463-4.182-1.155c-0.001,0.038-0.001,0.077-0.001,0.116
	c0,4.473,3.182,8.204,7.406,9.053c-0.775,0.211-1.59,0.324-2.432,0.324c-0.595,0-1.173-0.058-1.737-0.166
	c1.175,3.668,4.584,6.337,8.624,6.411c-3.16,2.476-7.14,3.952-11.466,3.952c-0.745,0-1.48-0.044-2.202-0.129
	c4.086,2.62,8.939,4.148,14.152,4.148c16.981,0,26.268-14.068,26.268-26.268c0-0.4-0.009-0.798-0.027-1.194
	C42.197,12.021,43.762,10.395,45,8.544z"/>
</svg>
