<?xml version="1.0" encoding="utf-8"?>
<!-- Generator: Adobe Illustrator 17.0.0, SVG Export Plug-In . SVG Version: 6.00 Build 0)  -->
<!DOCTYPE svg PUBLIC "-//W3C//DTD SVG 1.1//EN" "http://www.w3.org/Graphics/SVG/1.1/DTD/svg11.dtd">
<svg version="1.1" id="Capa_1" xmlns="http://www.w3.org/2000/svg" xmlns:xlink="http://www.w3.org/1999/xlink" x="0px" y="0px"
	 width="220px" height="65px" viewBox="0 0 220 65" enable-background="new 0 0 220 65" xml:space="preserve">
<circle fill="none" stroke="#5AA9E0" stroke-width="3" stroke-miterlimit="10" cx="34" cy="32.5" r="27.798"/>
<g>
	<path fill="#5AA9E0" d="M17.278,39.077l-3.138-11.649l-1.466-0.376v-1.033l5.261-0.094v1.127l-1.635,0.376l2.01,8.512l3.1-9.921
		l1.785-0.094l3.044,10.221l2.33-8.718l-1.71-0.376v-1.033l5.073-0.094v1.127l-1.484,0.376l-3.306,11.649h-2.067l-2.8-10.672
		l-0.582,2.123l-2.537,8.548L17.278,39.077L17.278,39.077z"/>
	<path fill="#5AA9E0" d="M34.657,31.467h1.503c0.864,0,1.55-0.19,2.057-0.573c0.507-0.382,0.761-0.898,0.761-1.55
		c0-0.651-0.219-1.149-0.658-1.494c-0.439-0.344-1.033-0.517-1.786-0.517c-0.676,0-1.277,0.094-1.803,0.282l-0.263,0.094L34.28,29.4
		h-1.503l-0.094-2.912c1.353-0.5,2.687-0.752,4.002-0.752c1.302,0,2.339,0.266,3.11,0.799c0.77,0.533,1.156,1.362,1.156,2.49
		c0,1.679-0.815,2.724-2.443,3.138c0.839,0.176,1.503,0.542,1.992,1.099c0.489,0.558,0.733,1.193,0.733,1.906
		c0,0.728-0.144,1.35-0.432,1.87c-0.289,0.519-0.667,0.943-1.137,1.268c-0.471,0.325-1.003,0.566-1.597,0.723
		c-0.595,0.157-1.2,0.235-1.813,0.235c-0.364,0-0.721-0.022-1.071-0.066c-0.351-0.044-0.676-0.101-0.977-0.169
		c-0.301-0.068-0.57-0.147-0.808-0.235c-0.238-0.088-0.432-0.168-0.582-0.244l-0.413-0.225l0.564-1.503
		c1.065,0.564,2.192,0.846,3.382,0.846c0.864,0,1.55-0.207,2.057-0.621c0.508-0.413,0.762-0.996,0.762-1.747
		s-0.279-1.327-0.836-1.728s-1.313-0.601-2.264-0.601h-1.409v-1.502h-0.002V31.467z"/>
	<path fill="#5AA9E0" d="M43.488,39.077V37.95l1.597-0.376V27.428l-1.597-0.376v-1.033l3.57-0.094h2.349
		c0.927,0,1.757,0.141,2.49,0.423s1.353,0.695,1.86,1.24s0.896,1.215,1.165,2.01c0.269,0.796,0.404,1.707,0.404,2.734
		c0,1.027-0.147,1.954-0.442,2.781c-0.295,0.827-0.711,1.535-1.249,2.123c-0.539,0.588-1.191,1.043-1.954,1.362
		c-0.764,0.319-1.617,0.479-2.555,0.479H43.488L43.488,39.077z M47.057,37.574h2.161c1.24,0,2.208-0.425,2.902-1.278
		c0.695-0.852,1.044-2.135,1.044-3.852c0-1.729-0.338-2.997-1.015-3.805c-0.676-0.808-1.622-1.212-2.837-1.212h-2.255
		C47.057,27.427,47.057,37.574,47.057,37.574z"/>
</g>
<g>
	<path fill="#5AA9E0" d="M90.926,22.418c0.384,0.168,0.6,0.624,0.408,1.032l-6.817,16.753c-0.288,0.673-1.2,0.648-1.488,0
		l-2.473-6.072l-2.472,6.072c-0.264,0.673-1.2,0.673-1.464-0.023L69.78,23.45c-0.144-0.408,0.072-0.864,0.456-1.032
		c0.408-0.168,0.888,0.024,1.032,0.432l6.097,14.954l2.448-6.024c0.312-0.696,1.2-0.744,1.512,0l2.472,6.024L89.87,22.85
		C90.038,22.442,90.518,22.25,90.926,22.418z M73.861,22.418c0.408-0.168,0.864,0.024,1.032,0.432l2.472,6.073l2.472-6.073
		c0.144-0.408,0.624-0.6,1.032-0.432c0.216,0.072,0.36,0.264,0.456,0.432l2.472,6.073l2.473-6.073
		c0.144-0.408,0.624-0.6,1.032-0.432c0.384,0.168,0.6,0.624,0.432,1.032l-3.216,7.873c-0.072,0.192-0.216,0.384-0.432,0.456
		c-0.408,0.144-0.864-0.024-1.056-0.456l-2.473-6.049l-2.472,6.049c-0.072,0.192-0.216,0.384-0.408,0.456
		c-0.408,0.144-0.888-0.024-1.056-0.456l-3.216-7.873C73.237,23.042,73.453,22.586,73.861,22.418z"/>
	<path fill="#5AA9E0" d="M103.405,39.291c0,0.433-0.36,0.793-0.816,0.793h-8.304c-0.432,0-0.792-0.36-0.792-0.793V23.234
		c0-0.432,0.36-0.792,0.792-0.792h8.304c0.456,0,0.816,0.36,0.816,0.792c0,0.456-0.36,0.816-0.816,0.816H95.1v14.425h7.488
		C103.044,38.476,103.405,38.836,103.405,39.291z M103.405,26.451c0,0.432-0.36,0.792-0.816,0.792h-4.296v1.608h2.809
		c0.456,0,0.815,0.36,0.815,0.816c0,0.432-0.359,0.792-0.815,0.792H97.5c-0.456,0-0.816-0.36-0.816-0.792v-3.216
		c0-0.456,0.36-0.792,0.816-0.792h5.088C103.044,25.659,103.405,25.995,103.405,26.451z M101.917,32.859
		c0,0.456-0.359,0.816-0.815,0.816h-2.809v1.584h4.296c0.456,0,0.816,0.359,0.816,0.815c0,0.433-0.36,0.792-0.816,0.792H97.5
		c-0.456,0-0.816-0.359-0.816-0.792v-3.216c0-0.432,0.36-0.792,0.816-0.792h3.601C101.557,32.067,101.917,32.427,101.917,32.859z"/>
	<path fill="#5AA9E0" d="M106.62,39.316v-16.13c0-0.432,0.36-0.816,0.792-0.816h6.336c3.289,0,5.568,2.592,5.568,5.617
		c0,1.128-0.287,2.256-0.984,3.264c2.545,3.696-0.07,8.881-4.559,8.881h-3.122c-1.056,0-1.056-1.632,0-1.632h3.122
		c3.672,0,5.064-4.488,2.951-6.649c-0.936-1.008,0.984-1.296,0.984-3.816c0-2.208-1.752-4.032-3.961-4.032h-5.52v15.314
		C108.228,40.371,106.62,40.371,106.62,39.316z M110.652,25.61h2.809c2.232,0,3.264,2.665,1.729,4.152
		c-0.816,0.792-1.633,0.696-2.617,0.696c-1.057,0-1.057-1.608,0-1.608c0.648,0,1.729,0.168,1.729-0.816
		c0-0.456-0.336-0.816-0.84-0.816h-2.809C109.596,27.219,109.596,25.61,110.652,25.61z M111.756,36.075
		c0-1.56,2.545-0.024,2.545-1.608c0-0.479-0.336-0.815-0.84-0.815h-2.809c-1.056,0-1.056-1.584,0-1.584h2.809
		c2.232,0,3.264,2.617,1.729,4.128c-0.434,0.432-1.033,0.696-1.729,0.696C112.885,36.892,111.756,37.06,111.756,36.075z"/>
	<path fill="#5AA9E0" d="M129.996,40.084c-0.432,0-0.793-0.36-0.793-0.793V23.234c0-0.432,0.361-0.792,0.793-0.792h4.801
		c5.207,0,8.832,3.744,8.832,8.809c0,5.089-3.625,8.833-8.832,8.833h-1.609c-0.432,0-0.791-0.36-0.791-0.793
		c0-0.455,0.359-0.815,0.791-0.815h1.609c4.295,0,7.225-3.024,7.225-7.225c0-4.176-2.93-7.201-7.225-7.201h-3.984v15.241
		C130.813,39.724,130.451,40.084,129.996,40.084z M133.213,36.892c-0.434,0-0.793-0.36-0.793-0.816c0-0.432,0.359-0.792,0.793-0.792
		h1.584c2.375,0,3.889-1.752,3.889-4.032c0-2.256-1.514-4.008-3.889-4.008h-0.793v5.617c0,0.456-0.336,0.816-0.791,0.816
		c-0.434,0-0.793-0.36-0.793-0.816v-6.409c0-0.456,0.359-0.816,0.793-0.816h1.584c3.287,0,5.473,2.472,5.473,5.616
		c0,3.169-2.186,5.641-5.473,5.641H133.213z"/>
	<path fill="#5AA9E0" d="M156.756,39.291c0,0.433-0.359,0.793-0.816,0.793h-8.305c-0.432,0-0.791-0.36-0.791-0.793V23.234
		c0-0.432,0.359-0.792,0.791-0.792h8.305c0.457,0,0.816,0.36,0.816,0.792c0,0.456-0.359,0.816-0.816,0.816h-7.488v14.425h7.488
		C156.396,38.476,156.756,38.836,156.756,39.291z M156.756,26.451c0,0.432-0.359,0.792-0.816,0.792h-4.295v1.608h2.809
		c0.455,0,0.814,0.36,0.814,0.816c0,0.432-0.359,0.792-0.814,0.792h-3.602c-0.455,0-0.816-0.36-0.816-0.792v-3.216
		c0-0.456,0.361-0.792,0.816-0.792h5.088C156.396,25.659,156.756,25.995,156.756,26.451z M155.268,32.859
		c0,0.456-0.359,0.816-0.814,0.816h-2.809v1.584h4.295c0.457,0,0.816,0.359,0.816,0.815c0,0.433-0.359,0.792-0.816,0.792h-5.088
		c-0.455,0-0.816-0.359-0.816-0.792v-3.216c0-0.432,0.361-0.792,0.816-0.792h3.602C154.908,32.067,155.268,32.427,155.268,32.859z"
		/>
	<path fill="#5AA9E0" d="M160.379,37.516c3.697,1.969,8.713,1.464,8.713-2.977c0-3.288-4.32-3.888-5.545-4.872
		c-1.92-1.512-0.912-5.761,5.064-3.336c0.938,0.384,0.361,1.872-0.623,1.464c-3.625-1.464-4.248,0.024-3.457,0.648
		c0.889,0.672,6.145,1.632,6.145,6.096c0,4.393-3.889,6.457-8.377,5.377c-0.814-0.168-1.752-0.48-2.688-0.984
		C158.699,38.451,159.443,37.035,160.379,37.516z M168.42,24.579c-2.16-0.768-4.752-1.176-6.336,0.576
		c-1.297,1.368-1.633,3.889,0.096,5.376c2.088,1.873,5.064,1.464,5.232,4.008c0.072,1.344-1.104,2.328-2.4,2.424
		c-1.561,0.097-3.504-0.287-5.088-1.439c-0.84-0.6,0.096-1.896,0.936-1.297c1.848,1.345,5.088,1.585,4.945,0.385
		c-0.098-1.128-2.473-0.936-4.705-2.88c-3.48-3.048-1.369-9.121,3.576-9.361c1.439-0.072,2.617,0.12,4.297,0.696
		C169.957,23.402,169.428,24.938,168.42,24.579z"/>
	<path fill="#5AA9E0" d="M174.371,40.084c-0.455,0-0.816-0.36-0.816-0.793V23.234c0-0.432,0.361-0.792,0.816-0.792
		c0.432,0,0.793,0.36,0.793,0.792v16.057C175.164,39.724,174.803,40.084,174.371,40.084z M177.588,40.084
		c-0.457,0-0.816-0.36-0.816-0.793V23.234c0-0.432,0.359-0.792,0.816-0.792c0.432,0,0.791,0.36,0.791,0.792v16.057
		C178.379,39.724,178.02,40.084,177.588,40.084z"/>
	<path fill="#5AA9E0" d="M195.035,39.052c-6,3.312-13.439-0.336-13.561-7.633c-0.119-6.84,6.24-10.753,12.961-8.593
		c1.152,0.36,0.648,1.896-0.48,1.512c-5.639-1.824-10.969,1.32-10.873,7.057c0.098,6.048,6.145,8.761,10.777,6.48v-6.624
		c0-1.056,1.609-1.056,1.609,0v7.104C195.469,38.644,195.301,38.908,195.035,39.052z M193.549,27.626
		c-0.865-0.384-1.873-0.552-3.025-0.528c-5.473,0.216-5.305,8.305,0.049,8.257v-4.104c0-1.056,1.631-1.056,1.631,0V36.1
		c0,0.863-1.104,0.888-1.703,0.888c-7.297,0-7.633-11.209-0.023-11.473c1.416-0.048,2.639,0.168,3.719,0.624
		C195.156,26.595,194.508,28.035,193.549,27.626z"/>
	<path fill="#5AA9E0" d="M200.027,40.107c-0.432,0-0.793-0.384-0.793-0.816V23.234c0-0.432,0.361-0.768,0.793-0.768
		c0.455,0,0.791,0.336,0.791,0.768v16.057C200.818,39.724,200.482,40.107,200.027,40.107z M202.475,22.61
		c0.361-0.288,0.865-0.168,1.105,0.192l5.52,7.896v-7.464c0-0.432,0.385-0.768,0.816-0.768s0.793,0.336,0.793,0.768v9.984
		c0,0.265-0.121,0.528-0.361,0.672c-0.359,0.265-0.84,0.168-1.104-0.191l-6.961-9.985C202.02,23.33,202.115,22.85,202.475,22.61z
		 M210.684,39.964c-0.383,0.239-0.863,0.144-1.127-0.216l-5.521-7.897v7.44c0,0.433-0.359,0.793-0.816,0.793
		c-0.432,0-0.768-0.36-0.768-0.793v-9.984c0-0.264,0.096-0.504,0.336-0.648c0.336-0.288,0.865-0.192,1.104,0.192l6.986,9.985
		C211.115,39.195,211.02,39.676,210.684,39.964z M213.107,40.107c-0.432,0-0.791-0.384-0.791-0.816V23.234
		c0-0.432,0.359-0.768,0.791-0.768c0.457,0,0.816,0.336,0.816,0.768v16.057C213.924,39.724,213.564,40.107,213.107,40.107z"/>
</g>
<g>
</g>
<g>
</g>
<g>
</g>
<g>
</g>
<g>
</g>
<g>
</g>
</svg>
