<?xml version="1.0" encoding="utf-8"?>
<!-- Generator: Adobe Illustrator 17.0.0, SVG Export Plug-In . SVG Version: 6.00 Build 0)  -->
<!DOCTYPE svg PUBLIC "-//W3C//DTD SVG 1.1//EN" "http://www.w3.org/Graphics/SVG/1.1/DTD/svg11.dtd">
<svg version="1.1" id="Capa_1" xmlns="http://www.w3.org/2000/svg" xmlns:xlink="http://www.w3.org/1999/xlink" x="0px" y="0px"
	 width="1450px" height="140px" viewBox="0 0 1450 140" enable-background="new 0 0 1450 140" xml:space="preserve">
<g>
	<path fill="#FFFFFF" d="M42.159,108H16.6V22.204h25.559C99.276,22.204,99.276,108,42.159,108z M33.759,39.363v51.478h8.4
		c33.358,0,33.358-51.478,0-51.478H33.759z"/>
	<path fill="#FFFFFF" d="M127.866,109.172c-9.258,0-16.475-2.852-21.65-8.555c-5.176-5.703-7.764-13.691-7.764-23.965
		c0-10.156,2.5-18.291,7.5-24.404c5-6.113,11.738-9.17,20.215-9.17c7.5,0,13.418,2.618,17.754,7.852
		c4.336,5.235,6.504,12.344,6.504,21.328v4.688h-45.879c0.078,8.75,2.119,15.43,6.123,20.039c4.003,4.609,9.736,6.914,17.197,6.914
		c3.633,0,6.826-0.254,9.58-0.762s6.24-1.602,10.459-3.281v5.273c-3.594,1.563-6.914,2.627-9.961,3.193
		S131.538,109.172,127.866,109.172z M126.167,48.234c-6.133,0-11.055,2.021-14.766,6.064c-3.711,4.043-5.879,9.873-6.504,17.49
		h39.375c0-7.383-1.602-13.154-4.805-17.314C136.264,50.314,131.831,48.234,126.167,48.234z"/>
	<path fill="#FFFFFF" d="M207.495,91.418c0,5.703-2.168,10.088-6.504,13.154s-10.488,4.6-18.457,4.6
		c-8.516,0-15.274-1.309-20.273-3.926v-6.27c6.406,3.203,13.164,4.805,20.273,4.805c6.289,0,11.064-1.045,14.326-3.135
		c3.261-2.09,4.893-4.873,4.893-8.35c0-3.203-1.299-5.898-3.896-8.086c-2.598-2.188-6.866-4.336-12.803-6.445
		c-6.368-2.305-10.84-4.287-13.418-5.947c-2.578-1.66-4.522-3.535-5.83-5.625c-1.309-2.089-1.963-4.638-1.963-7.646
		c0-4.765,2.001-8.535,6.006-11.309c4.003-2.773,9.599-4.16,16.787-4.16c6.875,0,13.398,1.289,19.57,3.867l-2.168,5.273
		c-6.25-2.578-12.051-3.867-17.402-3.867c-5.196,0-9.316,0.86-12.363,2.578c-3.047,1.719-4.57,4.102-4.57,7.148
		c0,3.321,1.181,5.977,3.545,7.969c2.363,1.992,6.982,4.219,13.857,6.68c5.742,2.07,9.921,3.936,12.539,5.596
		c2.617,1.66,4.58,3.545,5.889,5.654C206.84,86.086,207.495,88.566,207.495,91.418z"/>
	<path fill="#FFFFFF" d="M223.081,26.613c0-3.75,1.23-5.625,3.691-5.625c1.21,0,2.158,0.489,2.842,1.465
		c0.683,0.977,1.025,2.364,1.025,4.16c0,1.758-0.342,3.145-1.025,4.16c-0.684,1.016-1.631,1.523-2.842,1.523
		C224.312,32.297,223.081,30.403,223.081,26.613z M229.702,108h-5.801V44.309h5.801V108z"/>
	<path fill="#FFFFFF" d="M300.718,44.309v4.043l-13.184,0.82c3.516,4.375,5.273,9.18,5.273,14.414
		c0,6.133-2.042,11.104-6.123,14.912c-4.083,3.809-9.561,5.713-16.436,5.713c-2.891,0-4.922-0.117-6.094-0.352
		c-2.305,1.211-4.063,2.637-5.273,4.277c-1.211,1.641-1.816,3.379-1.816,5.215c0,2.031,0.771,3.516,2.314,4.453
		c1.542,0.938,4.131,1.406,7.764,1.406h11.133c6.914,0,12.207,1.396,15.879,4.189c3.671,2.793,5.508,6.924,5.508,12.393
		c0,6.719-2.725,11.904-8.174,15.557s-13.213,5.479-23.291,5.479c-8.008,0-14.209-1.544-18.604-4.629
		c-4.395-3.086-6.592-7.383-6.592-12.891c0-4.375,1.357-8.008,4.072-10.898c2.714-2.891,6.396-4.863,11.045-5.918
		c-1.915-0.82-3.448-1.982-4.6-3.486c-1.153-1.504-1.729-3.232-1.729-5.186c0-4.258,2.714-8.008,8.145-11.25
		c-3.711-1.523-6.602-3.916-8.672-7.178c-2.071-3.262-3.105-7.002-3.105-11.221c0-6.367,2.021-11.474,6.064-15.322
		c4.043-3.847,9.501-5.771,16.377-5.771c4.179,0,7.421,0.41,9.727,1.23H300.718z M249.155,118.781
		c0,8.75,6.504,13.125,19.512,13.125c16.718,0,25.078-5.332,25.078-15.996c0-3.828-1.309-6.602-3.926-8.32
		c-2.618-1.719-6.855-2.578-12.715-2.578h-10.43C254.995,105.012,249.155,109.602,249.155,118.781z M254.019,64.172
		c0,4.922,1.494,8.74,4.482,11.455s6.982,4.072,11.982,4.072c5.312,0,9.384-1.348,12.217-4.043
		c2.832-2.695,4.248-6.601,4.248-11.719c0-5.429-1.456-9.501-4.365-12.217c-2.911-2.714-6.983-4.072-12.217-4.072
		c-5.079,0-9.073,1.456-11.982,4.365C255.473,54.924,254.019,58.977,254.019,64.172z"/>
	<path fill="#FFFFFF" d="M358.198,108V66.691c0-6.406-1.348-11.064-4.043-13.975c-2.695-2.91-6.875-4.365-12.539-4.365
		c-7.617,0-13.194,1.924-16.729,5.771c-3.536,3.848-5.303,10.088-5.303,18.721V108h-5.801V44.309h4.922l1.113,8.73h0.352
		c4.14-6.64,11.503-9.961,22.09-9.961c14.453,0,21.68,7.754,21.68,23.262V108H358.198z"/>
	<path fill="#FFFFFF" d="M418.272,76.441c-12.959,0-12.959-19.319,0-19.319C431.472,57.122,431.112,76.441,418.272,76.441z"/>
	<path fill="#FFFFFF" d="M500.682,108h-25.559V22.204h25.559C557.8,22.204,557.8,108,500.682,108z M492.282,39.363v51.478h8.4
		c33.358,0,33.358-51.478,0-51.478H492.282z"/>
	<path fill="#FFFFFF" d="M586.39,109.172c-9.258,0-16.475-2.852-21.65-8.555c-5.176-5.703-7.764-13.691-7.764-23.965
		c0-10.156,2.5-18.291,7.5-24.404c5-6.113,11.738-9.17,20.215-9.17c7.5,0,13.418,2.618,17.754,7.852
		c4.336,5.235,6.504,12.344,6.504,21.328v4.688h-45.879c0.078,8.75,2.119,15.43,6.123,20.039c4.003,4.609,9.736,6.914,17.197,6.914
		c3.633,0,6.826-0.254,9.58-0.762s6.24-1.602,10.459-3.281v5.273c-3.595,1.563-6.914,2.627-9.961,3.193
		S590.061,109.172,586.39,109.172z M584.69,48.234c-6.133,0-11.055,2.021-14.766,6.064c-3.711,4.043-5.879,9.873-6.504,17.49h39.375
		c0-7.383-1.603-13.154-4.805-17.314C594.788,50.314,590.354,48.234,584.69,48.234z"/>
	<path fill="#FFFFFF" d="M640.472,108l-24.609-63.691h5.977l16.465,43.301c2.188,5.547,3.828,10.391,4.922,14.531h0.352
		c1.602-5.313,3.242-10.195,4.922-14.648l16.465-43.184h5.977L646.331,108H640.472z"/>
	<path fill="#FFFFFF" d="M707.327,109.172c-9.258,0-16.475-2.852-21.65-8.555c-5.177-5.703-7.764-13.691-7.764-23.965
		c0-10.156,2.499-18.291,7.5-24.404c5-6.113,11.738-9.17,20.215-9.17c7.5,0,13.418,2.618,17.754,7.852
		c4.336,5.235,6.504,12.344,6.504,21.328v4.688h-45.879c0.078,8.75,2.118,15.43,6.123,20.039c4.004,4.609,9.735,6.914,17.197,6.914
		c3.633,0,6.826-0.254,9.58-0.762s6.24-1.602,10.459-3.281v5.273c-3.595,1.563-6.914,2.627-9.961,3.193
		S710.998,109.172,707.327,109.172z M705.628,48.234c-6.133,0-11.055,2.021-14.766,6.064c-3.712,4.043-5.88,9.873-6.504,17.49
		h39.375c0-7.383-1.603-13.154-4.805-17.314C715.726,50.314,711.291,48.234,705.628,48.234z"/>
	<path fill="#FFFFFF" d="M753.265,108h-5.801V16.828h5.801V108z"/>
	<path fill="#FFFFFF" d="M827.269,76.066c0,10.391-2.52,18.506-7.559,24.346s-11.992,8.76-20.859,8.76
		c-5.587,0-10.509-1.348-14.766-4.043c-4.258-2.695-7.521-6.563-9.785-11.602c-2.266-5.039-3.398-10.859-3.398-17.461
		c0-10.39,2.52-18.486,7.559-24.287s11.953-8.701,20.742-8.701c8.75,0,15.615,2.94,20.596,8.818
		C824.778,57.776,827.269,65.833,827.269,76.066z M776.995,76.066c0,8.75,1.924,15.576,5.771,20.479
		c3.847,4.902,9.287,7.354,16.318,7.354s12.471-2.451,16.318-7.354c3.847-4.902,5.771-11.729,5.771-20.479
		c0-8.789-1.943-15.605-5.83-20.449c-3.888-4.843-9.346-7.266-16.377-7.266s-12.451,2.413-16.26,7.236
		C778.899,60.413,776.995,67.239,776.995,76.066z"/>
	<path fill="#FFFFFF" d="M872.151,109.172c-9.806,0-16.954-3.672-21.445-11.016h-0.41l0.176,4.922
		c0.155,2.891,0.234,6.055,0.234,9.492v24.258h-5.801v-92.52h4.922l1.113,9.082h0.352c4.374-6.875,11.367-10.313,20.977-10.313
		c8.593,0,15.146,2.823,19.658,8.467c4.512,5.645,6.768,13.857,6.768,24.639c0,10.469-2.373,18.584-7.119,24.346
		S880.354,109.172,872.151,109.172z M872.034,104.016c6.523,0,11.572-2.422,15.146-7.266s5.361-11.621,5.361-20.332
		c0-18.71-6.759-28.066-20.273-28.066c-7.422,0-12.871,2.042-16.348,6.123c-3.478,4.083-5.215,10.733-5.215,19.951v1.875
		c0,9.961,1.67,17.07,5.01,21.328S864.495,104.016,872.034,104.016z"/>
	<path fill="#FFFFFF" d="M950.038,76.441c-12.959,0-12.959-19.319,0-19.319C963.238,57.122,962.878,76.441,950.038,76.441z"/>
	<path fill="#FFFFFF" d="M1009.797,108V22.204h17.159V108H1009.797z"/>
	<path fill="#FFFFFF" d="M1126.91,108V66.223c0-6.211-1.211-10.742-3.633-13.594c-2.423-2.851-6.133-4.277-11.133-4.277
		c-6.524,0-11.348,1.797-14.473,5.391c-3.126,3.594-4.688,9.239-4.688,16.934V108h-5.918V64.465
		c0-10.742-4.922-16.113-14.766-16.113c-6.68,0-11.543,1.944-14.59,5.83c-3.047,3.887-4.57,10.107-4.57,18.662V108h-5.801V44.309
		h4.805l1.23,8.73h0.352c1.758-3.164,4.257-5.615,7.5-7.354c3.242-1.738,6.816-2.607,10.723-2.607
		c10.039,0,16.484,3.77,19.336,11.309h0.234c2.07-3.633,4.854-6.425,8.35-8.379c3.495-1.953,7.471-2.93,11.924-2.93
		c6.952,0,12.167,1.856,15.645,5.566c3.477,3.711,5.215,9.609,5.215,17.695V108H1126.91z"/>
	<path fill="#FFFFFF" d="M1180.523,109.172c-9.806,0-16.954-3.672-21.445-11.016h-0.41l0.176,4.922
		c0.155,2.891,0.234,6.055,0.234,9.492v24.258h-5.801v-92.52h4.922l1.113,9.082h0.352c4.374-6.875,11.367-10.313,20.977-10.313
		c8.593,0,15.146,2.823,19.658,8.467c4.512,5.645,6.768,13.857,6.768,24.639c0,10.469-2.373,18.584-7.119,24.346
		S1188.727,109.172,1180.523,109.172z M1180.406,104.016c6.523,0,11.572-2.422,15.146-7.266s5.361-11.621,5.361-20.332
		c0-18.71-6.759-28.066-20.273-28.066c-7.422,0-12.871,2.042-16.348,6.123c-3.478,4.083-5.215,10.733-5.215,19.951v1.875
		c0,9.961,1.67,17.07,5.01,21.328S1172.867,104.016,1180.406,104.016z"/>
	<path fill="#FFFFFF" d="M1249.781,43.078c2.695,0,5.586,0.274,8.672,0.82l-1.113,5.566c-2.657-0.664-5.411-0.996-8.262-0.996
		c-5.43,0-9.883,2.305-13.359,6.914c-3.478,4.61-5.215,10.43-5.215,17.461V108h-5.801V44.309h4.922l0.586,11.484h0.41
		c2.616-4.688,5.41-7.978,8.379-9.873C1241.968,44.026,1245.563,43.078,1249.781,43.078z"/>
	<path fill="#FFFFFF" d="M1324.078,76.066c0,10.391-2.52,18.506-7.559,24.346s-11.992,8.76-20.859,8.76
		c-5.587,0-10.509-1.348-14.766-4.043c-4.258-2.695-7.521-6.563-9.785-11.602c-2.266-5.039-3.398-10.859-3.398-17.461
		c0-10.39,2.52-18.486,7.559-24.287s11.953-8.701,20.742-8.701c8.75,0,15.615,2.94,20.596,8.818
		C1321.588,57.776,1324.078,65.833,1324.078,76.066z M1273.805,76.066c0,8.75,1.924,15.576,5.771,20.479
		c3.847,4.902,9.287,7.354,16.318,7.354s12.471-2.451,16.318-7.354c3.847-4.902,5.771-11.729,5.771-20.479
		c0-8.789-1.943-15.605-5.83-20.449c-3.888-4.843-9.346-7.266-16.377-7.266s-12.451,2.413-16.26,7.236
		C1275.709,60.413,1273.805,67.239,1273.805,76.066z"/>
	<path fill="#FFFFFF" d="M1355.66,108l-24.609-63.691h5.977l16.465,43.301c2.188,5.547,3.828,10.391,4.922,14.531h0.352
		c1.602-5.313,3.242-10.195,4.922-14.648l16.465-43.184h5.977L1361.52,108H1355.66z"/>
	<path fill="#FFFFFF" d="M1422.516,109.172c-9.258,0-16.475-2.852-21.65-8.555c-5.177-5.703-7.764-13.691-7.764-23.965
		c0-10.156,2.499-18.291,7.5-24.404c5-6.113,11.738-9.17,20.215-9.17c7.5,0,13.418,2.618,17.754,7.852
		c4.336,5.235,6.504,12.344,6.504,21.328v4.688h-45.879c0.078,8.75,2.118,15.43,6.123,20.039c4.004,4.609,9.735,6.914,17.197,6.914
		c3.633,0,6.826-0.254,9.58-0.762s6.24-1.602,10.459-3.281v5.273c-3.595,1.563-6.914,2.627-9.961,3.193
		S1426.187,109.172,1422.516,109.172z M1420.816,48.234c-6.133,0-11.055,2.021-14.766,6.064c-3.712,4.043-5.88,9.873-6.504,17.49
		h39.375c0-7.383-1.603-13.154-4.805-17.314C1430.914,50.314,1426.479,48.234,1420.816,48.234z"/>
</g>
<g>
</g>
<g>
</g>
<g>
</g>
<g>
</g>
<g>
</g>
<g>
</g>
</svg>
