<?xml version="1.0" encoding="utf-8"?>
<!-- Generated by IcoMoon.io -->
<!DOCTYPE svg PUBLIC "-//W3C//DTD SVG 1.1//EN" "http://www.w3.org/Graphics/SVG/1.1/DTD/svg11.dtd">
<svg version="1.1" xmlns="http://www.w3.org/2000/svg" xmlns:xlink="http://www.w3.org/1999/xlink" width="45" height="45" viewBox="0 0 45 45">
<path fill="#ffffff" d="M28.125 0.007c-9.319 0-16.875 7.556-16.875 16.875 0 2.849 0.713 5.531 1.962 7.886l-11.734 11.731 0.010 0.008c-0.917 0.901-1.488 2.15-1.488 3.538 0 2.741 2.222 4.963 4.963 4.963 1.385 0 2.635-0.571 3.537-1.489l-0.003-0.003 11.73-11.728c2.357 1.253 5.043 1.969 7.899 1.969 9.319 0 16.875-7.556 16.875-16.875s-7.556-16.875-16.875-16.875zM6.743 41.761c-0.453 0.47-1.080 0.764-1.78 0.764-1.371 0-2.482-1.11-2.482-2.481 0-0.7 0.295-1.326 0.764-1.78l-0.013-0.011 11.343-11.343c0.991 1.337 2.173 2.519 3.507 3.513l-11.339 11.339zM28.125 30.946c-7.765 0-14.063-6.299-14.063-14.063 0-7.765 6.297-14.063 14.063-14.063 7.764 0 14.063 6.297 14.063 14.063 0 7.764-6.299 14.063-14.063 14.063zM28.125 7.038c0.387 0 0.703 0.315 0.703 0.703s-0.316 0.703-0.703 0.703c-4.66 0-8.438 3.779-8.438 8.437 0 0.388-0.315 0.703-0.703 0.703s-0.703-0.315-0.703-0.703c0-5.437 4.406-9.844 9.844-9.844z"></path>
</svg>
