<?xml version="1.0" encoding="utf-8"?>
<!-- Generated by IcoMoon.io -->
<!DOCTYPE svg PUBLIC "-//W3C//DTD SVG 1.1//EN" "http://www.w3.org/Graphics/SVG/1.1/DTD/svg11.dtd">
<svg version="1.1" xmlns="http://www.w3.org/2000/svg" xmlns:xlink="http://www.w3.org/1999/xlink" width="45" height="45" viewBox="0 0 45 45">
<path fill="#ffffff" d="M21.797 0c-12.039 0-21.797 9.758-21.797 21.797s9.758 21.797 21.797 21.797 21.797-9.758 21.797-21.797-9.758-21.797-21.797-21.797zM40.746 21.094h-8.432c-0.077-3.115-0.631-6.090-1.614-8.814 1.898-0.792 3.653-1.845 5.254-3.090 2.845 3.194 4.624 7.341 4.792 11.904zM21.019 40.742c-2.337-1.946-4.298-4.473-5.732-7.408 1.841-0.575 3.791-0.89 5.806-0.955v8.366c-0.025 0-0.049-0.001-0.075-0.003zM22.572 2.852c2.652 2.208 4.816 5.165 6.28 8.615-2.005 0.685-4.136 1.083-6.353 1.153v-9.772c0.027 0.001 0.049 0.003 0.073 0.004zM24.915 3.091c3.881 0.645 7.363 2.458 10.074 5.082-1.472 1.129-3.081 2.085-4.821 2.81-1.28-3.033-3.075-5.715-5.254-7.892zM21.094 2.848v9.772c-2.218-0.072-4.35-0.468-6.353-1.153 1.464-3.45 3.628-6.407 6.28-8.615 0.025-0.001 0.048-0.003 0.073-0.004zM13.424 10.984c-1.737-0.724-3.347-1.68-4.819-2.81 2.71-2.624 6.193-4.437 10.074-5.082-2.18 2.175-3.974 4.857-5.255 7.892zM14.21 12.763c2.168 0.752 4.479 1.191 6.884 1.264v7.066h-8.408c0.076-2.945 0.598-5.759 1.524-8.331zM21.094 22.5v8.473c-2.218 0.067-4.362 0.43-6.383 1.081-1.218-2.9-1.936-6.13-2.025-9.554h8.408zM18.679 40.503c-3.478-0.578-6.636-2.092-9.204-4.292 1.385-0.96 2.883-1.773 4.483-2.391 1.226 2.543 2.831 4.8 4.721 6.682zM22.5 40.746v-8.366c2.014 0.065 3.966 0.38 5.806 0.955-1.436 2.935-3.395 5.462-5.732 7.408-0.024 0-0.049 0.001-0.075 0.003zM29.635 33.82c1.599 0.617 3.095 1.432 4.483 2.391-2.568 2.198-5.726 3.714-9.204 4.292 1.89-1.883 3.493-4.14 4.721-6.682zM28.883 32.054c-2.022-0.651-4.167-1.014-6.383-1.081v-8.473h8.408c-0.089 3.424-0.809 6.654-2.025 9.554zM22.5 21.094v-7.066c2.403-0.073 4.714-0.51 6.884-1.263 0.925 2.572 1.447 5.386 1.524 8.331h-8.408zM7.642 9.19c1.6 1.245 3.355 2.298 5.252 3.090-0.983 2.724-1.537 5.7-1.614 8.814h-8.432c0.169-4.563 1.948-8.71 4.794-11.904zM2.848 22.5h8.432c0.087 3.593 0.838 6.986 2.114 10.036-1.782 0.695-3.443 1.62-4.975 2.715-3.302-3.286-5.386-7.779-5.57-12.752zM35.176 35.25c-1.533-1.094-3.194-2.021-4.977-2.715 1.277-3.050 2.026-6.443 2.115-10.036h8.432c-0.184 4.974-2.27 9.467-5.57 12.752z"></path>
</svg>
