<?xml version="1.0" encoding="utf-8"?>
<!-- Generator: Adobe Illustrator 17.0.0, SVG Export Plug-In . SVG Version: 6.00 Build 0)  -->
<!DOCTYPE svg PUBLIC "-//W3C//DTD SVG 1.1//EN" "http://www.w3.org/Graphics/SVG/1.1/DTD/svg11.dtd">
<svg version="1.1" id="Capa_1" xmlns="http://www.w3.org/2000/svg" xmlns:xlink="http://www.w3.org/1999/xlink" x="0px" y="0px"
	 width="45px" height="45px" viewBox="0 0 45 45" enable-background="new 0 0 45 45" xml:space="preserve">
<rect x="1.667" y="1.667" fill="#31323A" width="41.667" height="41.667"/>
<path fill="#EFEFEF" d="M33.399,19.24L23.85,9.691c-0.746-0.746-1.955-0.746-2.7,0l-9.549,9.549c-0.746,0.746-0.746,1.955,0,2.7
	c0.746,0.746,1.955,0.746,2.7,0l6.288-6.288v18.306c0,1.055,0.855,1.91,1.91,1.91c1.055,0,1.91-0.855,1.91-1.91V15.652l6.288,6.288
	c0.373,0.373,0.862,0.56,1.351,0.56s0.978-0.187,1.351-0.56C34.145,21.195,34.145,19.985,33.399,19.24z"/>
</svg>
