<?xml version="1.0" encoding="utf-8"?>
<!-- Generator: Adobe Illustrator 17.0.0, SVG Export Plug-In . SVG Version: 6.00 Build 0)  -->
<!DOCTYPE svg PUBLIC "-//W3C//DTD SVG 1.1//EN" "http://www.w3.org/Graphics/SVG/1.1/DTD/svg11.dtd">
<svg version="1.1" id="Capa_1" xmlns="http://www.w3.org/2000/svg" xmlns:xlink="http://www.w3.org/1999/xlink" x="0px" y="0px"
	 width="750px" height="750px" viewBox="0 0 750 750" enable-background="new 0 0 750 750" xml:space="preserve">
<g>
	<g>
		<g>
			<g>
				<path fill="#31323A" d="M409.113,151.909c-15.418,0-29.407,6.081-39.731,15.962V16.024
					C173.744,18.522,15.644,176.633,13.166,372.278h140.829c-3.844-8.276-6.004-17.494-6.004-27.218
					c0-35.735,28.969-64.705,64.705-64.705c35.733,0,64.704,28.97,64.704,64.705c0,9.724-2.159,18.943-6.004,27.218h97.986V250.919
					c10.324,9.881,24.313,15.962,39.731,15.962c31.746,0,57.485-25.737,57.485-57.486
					C466.598,177.646,440.859,151.909,409.113,151.909z"/>
				<g>
					<path fill="#FFFFFF" d="M143.587,186.633v34.319h13.62v8.58h-22.199v-42.898H143.587z"/>
					<path fill="#FFFFFF" d="M164.587,229.531v-42.898h8.58v42.898H164.587z"/>
					<path fill="#FFFFFF" d="M181.926,217.771c4.92,3.48,10.259,3.6,12.239,3.42c2.52-0.18,4.68-1.979,4.44-4.32
						c-0.18-2.459-2.04-3.54-4.44-4.379c-6.72-2.46-12.719-5.88-12.719-13.08s4.979-12.72,12.12-13.08
						c2.22-0.12,5.16-0.12,10.679,1.8l-1.08,8.28c-4.74-1.92-7.44-1.86-8.76-1.8c-3.06,0.18-4.44,2.4-4.26,4.8
						c0.24,2.4,2.34,3.48,4.8,4.32c6.66,2.46,12.419,6.3,12.419,13.139c0,7.14-4.92,12.6-12.959,13.02
						c-2.4,0.18-7.74-0.12-13.56-3.12L181.926,217.771z"/>
					<path fill="#FFFFFF" d="M221.646,229.531v-34.318h-10.68v-8.52h29.939v8.52h-10.68v34.318H221.646z"/>
					<path fill="#FFFFFF" d="M247.386,229.531v-42.898h21.479v8.58h-12.899v8.58h11.28v8.58h-11.28v8.58h13.62v8.58H247.386z"/>
					<path fill="#FFFFFF" d="M286.205,229.531h-8.58v-43.798h2.28l21.659,25.199v-24.239h8.64v43.738h-2.28l-21.719-24.239V229.531z
						"/>
				</g>
			</g>
			<g>
				<path fill="#E9C332" d="M734.991,372.278C732.504,175.998,573.387,17.491,376.868,16v137.307
					c9.493-5.471,20.501-8.617,32.245-8.617c35.732,0,64.703,28.969,64.703,64.705c0,35.735-28.971,64.704-64.703,64.704
					c-11.744,0-22.752-3.146-32.245-8.616v106.795h122.993c-9.85,10.318-15.91,24.284-15.91,39.673
					c0,31.753,25.739,57.489,57.486,57.489c31.749,0,57.487-25.736,57.487-57.489c0-15.389-6.06-29.355-15.91-39.673H734.991z"/>
				<g>
					<path fill="#FFFFFF" d="M492.666,235.883v34.319h13.619v8.58h-22.199v-42.898H492.666z"/>
					<path fill="#FFFFFF" d="M513.666,278.781v-42.898h21.479v8.58h-12.899v8.58h11.279v8.58h-11.279v8.58h13.619v8.58H513.666z"/>
					<path fill="#FFFFFF" d="M558.125,234.323h0.899l18.06,44.458h-9.66l-1.739-4.62h-14.22l-1.68,4.62h-9.72L558.125,234.323z
						 M562.505,266.122l-3.9-11.159l-4.02,11.159H562.505z"/>
					<path fill="#FFFFFF" d="M604.445,278.781l-8.64-16.379h-4.14v16.379h-8.58v-42.898h16.919c15.3,0,16.8,21.539,4.2,25.199
						l9.96,17.699H604.445z M591.666,254.063h7.56c5.819,0,5.819-9.6,0-9.6h-7.56V254.063z"/>
					<path fill="#FFFFFF" d="M628.445,278.781h-8.58v-43.798h2.28l21.659,25.199v-24.239h8.64v43.738h-2.28l-21.719-24.239V278.781z
						"/>
				</g>
			</g>
			<g>
				<path fill="#5AA9E0" d="M337.545,484.729c11.578,0,22.436,3.058,31.837,8.382v-113.35H258.519
					c7.315-9.644,11.663-21.665,11.663-34.701c0-31.749-25.738-57.487-57.486-57.487c-31.749,0-57.486,25.738-57.486,57.487
					c0,13.037,4.346,25.057,11.662,34.701H13.141c1.51,196.49,159.989,355.583,356.24,358.091V605.755
					c-9.401,5.327-20.259,8.382-31.837,8.382c-35.735,0-64.703-28.968-64.703-64.705C272.841,513.7,301.809,484.729,337.545,484.729
					z"/>
				<g>
					<path fill="#FFFFFF" d="M86.359,475.7H74.548v-42.898h11.811C112.754,432.802,112.754,475.7,86.359,475.7z M82.478,441.382
						v25.738h3.882c15.415,0,15.415-25.738,0-25.738H82.478z"/>
					<path fill="#FFFFFF" d="M113.59,475.7v-42.898h19.851v8.58h-11.922v8.579h10.425v8.58h-10.425v8.579h12.587v8.58H113.59z"/>
					<path fill="#FFFFFF" d="M153.851,476.601l-16.414-43.799h9.149l5.268,14.279l2.883,8.88l2.828-8.579l5.323-14.58h9.149
						l-16.413,43.799H153.851z"/>
					<path fill="#FFFFFF" d="M176.866,475.7v-42.898h19.851v8.58h-11.922v8.579h10.425v8.58h-10.425v8.579h12.587v8.58H176.866z"/>
					<path fill="#FFFFFF" d="M212.746,432.802v34.318h12.587v8.58h-20.517v-42.898H212.746z"/>
					<path fill="#FFFFFF" d="M251.232,432.082c27.281,0,27.281,44.218,0,44.218C223.951,476.3,223.951,432.082,251.232,432.082z
						 M251.232,440.901c-15.859,0-15.859,26.52,0,26.52C267.091,467.421,267.091,440.901,251.232,440.901z"/>
					<path fill="#FFFFFF" d="M279.129,475.7v-42.838h15.582c15.415,0,15.36,26.459,0,26.459h-7.652V475.7H279.129z M294.045,450.981
						c5.323,0,5.323-9.6,0-9.6h-6.987v9.6H294.045z"/>
				</g>
			</g>
			<g>
				<path fill="#E37976" d="M597.555,379.761c5.454,9.482,8.586,20.469,8.586,32.19c0,35.737-28.969,64.706-64.705,64.706
					c-35.734,0-64.703-28.969-64.703-64.706c0-11.721,3.132-22.708,8.584-32.19H376.868v127.76
					c-10.282-9.652-24.107-15.572-39.323-15.572c-31.749,0-57.485,25.736-57.485,57.484c0,31.753,25.737,57.489,57.485,57.489
					c15.216,0,29.041-5.92,39.323-15.574v146.526c197.131-1.495,356.634-160.986,358.147-358.112H597.555z"/>
				<g>
					<path fill="#FFFFFF" d="M446.379,587.446h-11.811v-42.898h11.811C472.773,544.548,472.773,587.446,446.379,587.446z
						 M442.497,553.128v25.738h3.882c15.415,0,15.415-25.738,0-25.738H442.497z"/>
					<path fill="#FFFFFF" d="M473.609,587.446v-42.898h19.852v8.58h-11.922v8.579h10.425v8.58h-10.425v8.579h12.588v8.58H473.609z"
						/>
					<path fill="#FFFFFF" d="M500.729,575.687c4.547,3.48,9.481,3.6,11.312,3.42c2.329-0.18,4.325-1.979,4.104-4.319
						c-0.166-2.46-1.886-3.54-4.104-4.38c-6.21-2.46-11.755-5.88-11.755-13.08c0-7.199,4.602-12.719,11.2-13.079
						c2.052-0.12,4.77-0.12,9.87,1.8l-0.998,8.279c-4.38-1.92-6.876-1.859-8.096-1.8c-2.828,0.181-4.104,2.4-3.937,4.8
						c0.222,2.4,2.162,3.48,4.436,4.32c6.155,2.46,11.479,6.3,11.479,13.14c0,7.14-4.547,12.6-11.978,13.02
						c-2.218,0.18-7.152-0.12-12.531-3.12L500.729,575.687z"/>
					<path fill="#FFFFFF" d="M530.896,587.446v-42.898h7.93v42.898H530.896z"/>
					<path fill="#FFFFFF" d="M566.108,587.687c-26.173,0-27.503-42.419,0-43.498c4.714-0.181,8.539,1.319,9.261,1.56l-0.943,8.699
						c-1.553-0.72-4.104-1.68-8.317-1.56c-16.025,0.6-15.305,26.219,0,26.219c0.721,0,1.497-0.12,2.218-0.24v-12.899h8.041v18.84
						C573.317,586.666,569.879,587.687,566.108,587.687z"/>
					<path fill="#FFFFFF" d="M593.006,587.446h-7.93v-43.798h2.107l20.018,25.198v-24.238h7.985v43.738h-2.107l-20.073-24.239
						V587.446z"/>
				</g>
			</g>
		</g>
	</g>
</g>
<g>
</g>
<g>
</g>
<g>
</g>
<g>
</g>
<g>
</g>
<g>
</g>
</svg>
