<?xml version="1.0" encoding="utf-8"?>
<!-- Generator: Adobe Illustrator 17.0.0, SVG Export Plug-In . SVG Version: 6.00 Build 0)  -->
<!DOCTYPE svg PUBLIC "-//W3C//DTD SVG 1.1//EN" "http://www.w3.org/Graphics/SVG/1.1/DTD/svg11.dtd">
<svg version="1.1" id="Capa_1" xmlns="http://www.w3.org/2000/svg" xmlns:xlink="http://www.w3.org/1999/xlink" x="0px" y="0px"
	 width="100px" height="100px" viewBox="0 0 100 100" enable-background="new 0 0 100 100" xml:space="preserve">
<g id="Browser">
	<g>
		<path fill="none" stroke="#5AA9E0" stroke-miterlimit="10" d="M12.283,10.064c-1.225,0-2.219,0.994-2.219,2.219
			c0,1.226,0.993,2.219,2.219,2.219c1.225,0,2.219-0.992,2.219-2.219C14.501,11.058,13.508,10.064,12.283,10.064z M21.157,10.064
			c-1.225,0-2.219,0.994-2.219,2.219c0,1.226,0.993,2.219,2.219,2.219c1.225,0,2.219-0.992,2.219-2.219
			C23.376,11.058,22.382,10.064,21.157,10.064z M89.936,1.189H10.064c-4.901,0-8.875,3.974-8.875,8.875v79.872
			c0,4.901,3.974,8.875,8.875,8.875h79.872c4.901,0,8.875-3.974,8.875-8.875V10.064C98.811,5.163,94.837,1.189,89.936,1.189z
			 M94.373,89.936c0,2.451-1.987,4.437-4.437,4.437H10.064c-2.451,0-4.437-1.987-4.437-4.437v-66.56h88.747L94.373,89.936
			L94.373,89.936z M94.373,18.939H5.627v-8.875c0-2.451,1.987-4.437,4.437-4.437h79.872c2.45,0,4.437,1.987,4.437,4.437V18.939z
			 M30.032,10.064c-1.225,0-2.219,0.994-2.219,2.219c0,1.226,0.993,2.219,2.219,2.219c1.225,0,2.219-0.992,2.219-2.219
			C32.251,11.058,31.257,10.064,30.032,10.064z M87.717,10.064h-48.81c-1.225,0-2.219,0.994-2.219,2.219
			c0,1.226,0.994,2.219,2.219,2.219h48.811c1.225,0,2.219-0.992,2.219-2.219C89.936,11.058,88.942,10.064,87.717,10.064z"/>
	</g>
</g>
</svg>
