<?xml version="1.0" encoding="utf-8"?>
<!-- Generator: Adobe Illustrator 17.0.0, SVG Export Plug-In . SVG Version: 6.00 Build 0)  -->
<!DOCTYPE svg PUBLIC "-//W3C//DTD SVG 1.1//EN" "http://www.w3.org/Graphics/SVG/1.1/DTD/svg11.dtd">
<svg version="1.1" id="Capa_1" xmlns="http://www.w3.org/2000/svg" xmlns:xlink="http://www.w3.org/1999/xlink" x="0px" y="0px"
	 width="100px" height="100px" viewBox="0 0 100 100" enable-background="new 0 0 100 100" xml:space="preserve">
<g id="Globe_2">
	<g>
		<path fill="none" stroke="#5AA9E0" stroke-miterlimit="10" d="M39.481,45.207c0.274-3.15,5.341-6.436,8.764-7.942
			s6.573-2.054,6.162-4.656c-0.411-2.602-1.369-4.519-6.71-4.519s-3.013,7.121-7.395,2.876s0.959-3.15,3.15-4.108
			c2.191-0.959,4.382-4.93,0.548-5.204s-3.013,1.643-6.025,0.548c-3.013-1.095-4.382,3.834-6.299,3.15
			c-1.269-0.454-4.662-3-6.908-5.503c-4.534,3.821-8.181,8.651-10.625,14.139c0.652,7.363,4.66,11.22,4.66,11.22
			S20.857,50,33.182,55.888c0,0,2.328,0.137-0.411-2.602s-5.751-6.162-2.328-7.942c3.423-1.78,4.382-1.643,5.204,1.643
			C36.468,50.274,39.207,48.357,39.481,45.207z M55.64,59.586c-4.656-3.971-4.108-5.751-9.997-5.751
			c-5.888,0-9.586,1.369-8.079,9.586c1.506,8.216,5.888,4.519,5.478,10.818c-0.411,6.299,1.096,7.669,2.054,9.175
			c0.959,1.506,3.834,5.888,4.93-0.274s3.15-9.586,5.478-12.598S60.296,63.557,55.64,59.586z M89.415,46.339
			c-0.034-0.381-0.089-0.755-0.135-1.132c-0.101-0.835-0.225-1.658-0.378-2.473c-0.078-0.417-0.157-0.832-0.248-1.245
			c-0.179-0.809-0.39-1.605-0.616-2.396c-0.103-0.355-0.19-0.719-0.303-1.072c-0.338-1.059-0.719-2.097-1.14-3.115
			c-0.18-0.43-0.387-0.845-0.581-1.267c-0.276-0.603-0.556-1.202-0.861-1.787c-0.27-0.518-0.554-1.025-0.845-1.528
			c-0.26-0.449-0.531-0.89-0.808-1.329c-0.346-0.546-0.692-1.091-1.063-1.618c-0.203-0.289-0.424-0.565-0.633-0.849
			c-1.537-2.06-3.261-3.973-5.164-5.696c-0.12-0.109-0.236-0.218-0.357-0.325c-0.681-0.601-1.38-1.183-2.102-1.737
			c-0.036-0.03-0.074-0.056-0.111-0.083c-3.113-2.375-6.587-4.299-10.328-5.674c-1.118,1.782-2.251,4.048-3.582,4.808
			c-1.917,1.096-1.78,5.478,1.917,5.067c0,0-1.095,1.096,0,5.067c1.096,3.971,2.934,4.834,8.353,2.602
			c2.328-0.959,4.091-0.46,3.834,1.917c-0.548,5.067-4.452,4.853-1.506,13.009c1.78,4.93,6.162,6.847,7.806,10.681
			c0.904,2.11,4.373,4.048,7.316,5.371c0.314-1.031,0.58-2.086,0.811-3.154c0.088-0.404,0.156-0.817,0.232-1.228
			c0.145-0.796,0.271-1.598,0.368-2.411c0.046-0.383,0.095-0.764,0.131-1.149c0.107-1.183,0.181-2.377,0.181-3.59
			C89.601,48.763,89.527,47.546,89.415,46.339z M50.162,1.798C23.541,1.798,1.96,23.378,1.96,50s21.581,48.202,48.202,48.202
			c26.622,0,48.202-21.581,48.202-48.202S76.784,1.798,50.162,1.798z M50.162,93.82c-24.201,0-43.82-19.619-43.82-43.82
			s19.62-43.82,43.82-43.82c24.202,0,43.82,19.619,43.82,43.82S74.364,93.82,50.162,93.82z M74.469,59.243
			c-1.575,0.959-1.506,3.081-0.205,4.245c1.301,1.164,3.903,2.67,4.724,0C79.81,60.818,76.044,58.285,74.469,59.243z"/>
	</g>
</g>
</svg>
