<?xml version="1.0" encoding="utf-8"?>
<!-- Generator: Adobe Illustrator 17.0.0, SVG Export Plug-In . SVG Version: 6.00 Build 0)  -->
<!DOCTYPE svg PUBLIC "-//W3C//DTD SVG 1.1//EN" "http://www.w3.org/Graphics/SVG/1.1/DTD/svg11.dtd">
<svg version="1.1" id="Capa_1" xmlns="http://www.w3.org/2000/svg" xmlns:xlink="http://www.w3.org/1999/xlink" x="0px" y="0px"
	 width="113px" height="100px" viewBox="0 0 113 100" enable-background="new 0 0 113 100" xml:space="preserve">
<g id="Laptop">
	<g>
		<path fill="none" stroke="#5AA9E0" stroke-miterlimit="10" d="M111.506,86.448l0.039-0.027l-9.893-14.842
			c0.133-0.448,0.232-0.914,0.232-1.408V14.702c0-2.785-2.258-5.043-5.043-5.043H16.159c-2.785,0-5.043,2.258-5.043,5.043V70.17
			c0,0.495,0.099,0.96,0.234,1.408L1.455,86.421l0.039,0.027c-0.268,0.401-0.463,0.854-0.463,1.371c0,1.394,1.128,2.521,2.521,2.521
			h105.895c1.393,0,2.521-1.128,2.521-2.521C111.969,87.302,111.774,86.849,111.506,86.448z M16.159,14.702h80.682V70.17H16.159
			V14.702z M8.265,85.298l6.84-10.26c0.342,0.084,0.685,0.175,1.054,0.175h80.682c0.369,0,0.712-0.091,1.056-0.175l6.838,10.26
			H8.265z"/>
	</g>
</g>
</svg>
