<?xml version="1.0" encoding="utf-8"?>
<!-- Generator: Adobe Illustrator 17.0.0, SVG Export Plug-In . SVG Version: 6.00 Build 0)  -->
<!DOCTYPE svg PUBLIC "-//W3C//DTD SVG 1.1//EN" "http://www.w3.org/Graphics/SVG/1.1/DTD/svg11.dtd">
<svg version="1.1" id="Capa_1" xmlns="http://www.w3.org/2000/svg" xmlns:xlink="http://www.w3.org/1999/xlink" x="0px" y="0px"
	 width="100px" height="100px" viewBox="0 0 100 100" enable-background="new 0 0 100 100" xml:space="preserve">
<g id="Rocket">
	<g>
		<path fill="none" stroke="#5AA9E0" stroke-miterlimit="10" d="M47.879,36.602c-1.172,0-2.121,0.949-2.121,2.121
			s0.949,2.121,2.121,2.121S50,39.896,50,38.724S49.051,36.602,47.879,36.602z M19.803,54.776L3.361,96l41.224-16.442
			c-0.735,0.085-1.467,0.124-2.198,0.124C29.775,79.682,18.355,67.487,19.803,54.776z M10.96,88.401l7.669-19.226
			c1.032,1.906,2.308,3.72,3.808,5.398c2.266,2.542,4.893,4.62,7.735,6.165L10.96,88.401z M54.243,47.209
			c1.172,0,2.121-0.949,2.121-2.121s-0.949-2.121-2.121-2.121s-2.121,0.949-2.121,2.121S53.07,47.209,54.243,47.209z M73.334,32.36
			c3.515,0,6.364-2.85,6.364-6.364c0-3.513-2.848-6.364-6.364-6.364c-3.515,0-6.364,2.851-6.364,6.364
			C66.97,29.51,69.819,32.36,73.334,32.36z M73.334,23.875c1.172,0,2.121,0.949,2.121,2.121s-0.949,2.121-2.121,2.121
			s-2.121-0.949-2.121-2.121S72.161,23.875,73.334,23.875z M95.914,3.381c-0.48-0.483-1.668-0.721-3.383-0.721
			c-8.964,0-32.362,6.532-44.88,19.052c-2.952,2.952-12.73,11.953-15,15c-7.344,2.011-18.037,6.036-23.999,11.998
			c0,0,7.275,0.029,16.154,5.684c-1.291,5.262,0.346,10.815,4.845,15.315c3.505,3.505,7.65,5.274,11.798,5.274
			c1.176,0,2.353-0.143,3.517-0.429c5.655,8.879,5.684,16.154,5.684,16.154c5.962-5.962,9.987-16.655,11.999-23.999
			c3.047-2.271,12.048-12.048,15-15C92.562,36.799,98.913,6.381,95.914,3.381z M58.558,65.59
			c-1.552,5.662-3.592,10.845-5.856,15.006c-0.932-2.513-2.262-5.347-4.155-8.319c-0.791-1.241-2.152-1.964-3.58-1.964
			c-0.336,0-0.675,0.039-1.011,0.122c-0.827,0.203-1.67,0.307-2.506,0.307c-3.12,0-6.161-1.394-8.798-4.031
			c-3.364-3.364-4.688-7.379-3.725-11.304c0.433-1.767-0.309-3.613-1.841-4.589c-2.975-1.896-5.807-3.223-8.319-4.156
			c4.162-2.266,9.343-4.307,15.006-5.858c0.112-0.029,0.205-0.104,0.315-0.145l24.616,24.618
			C58.663,65.385,58.589,65.476,58.558,65.59z M74.649,48.711c-0.839,0.839-2.161,2.221-3.694,3.826
			c-2.732,2.859-6.938,7.255-9.436,9.556L37.268,37.841c2.299-2.498,6.698-6.704,9.556-9.434c1.606-1.535,2.987-2.855,3.826-3.696
			C62.127,13.235,84.187,6.952,92.436,6.905C92.421,13.776,86.631,36.729,74.649,48.711z M60.606,53.573
			c1.172,0,2.121-0.949,2.121-2.121s-0.949-2.121-2.121-2.121s-2.121,0.949-2.121,2.121S59.434,53.573,60.606,53.573z"/>
	</g>
</g>
</svg>
